<?xml version="1.0" encoding="utf-8"?>
<!-- Generator: Adobe Illustrator 24.3.0, SVG Export Plug-In . SVG Version: 6.00 Build 0)  -->
<svg version="1.1" id="Layer_1" xmlns="http://www.w3.org/2000/svg" xmlns:xlink="http://www.w3.org/1999/xlink" x="0px" y="0px"
	 viewBox="0 0 155 47" style="enable-background:new 0 0 155 47;" xml:space="preserve">
<style type="text/css">
	.st0{display:none;opacity:0.37;}
	.st1{display:inline;}
	.st2{fill:#FFFFFF;}
	.st3{font-family:'Gilroy-ExtraBold';}
	.st4{font-size:57.2429px;}
	.st5{letter-spacing:4;}
	.st6{fill:#0A67ED;}
	.st7{opacity:0.53;}
	.st8{fill:#377DFF;}
	.st9{font-size:53px;}
	.st10{letter-spacing:-1;}
	.st11{fill:#F26722;}
	.st12{display:none;opacity:0.67;}
	.st13{display:inline;fill:#2887F9;}
</style>
<g>
	<g>
		<g class="st0">
			<text transform="matrix(1 0 0 1 -0.2428 42.6233)" class="st1"><tspan x="0" y="0" class="st2 st3 st4 st5">T</tspan><tspan x="35.49" y="0" class="st6 st3 st4 st5">.</tspan><tspan x="56.1" y="0" class="st2 st3 st4 st5">L</tspan><tspan x="88.15" y="0" class="st6 st3 st4 st5">.</tspan><tspan x="108.76" y="0" class="st2 st3 st4 st5">P</tspan><tspan x="147.11" y="0" class="st6 st3 st4 st5">.</tspan></text>
		</g>
		<g id="_x39_YD7U7_1_" class="st7">
			<g>
				<path class="st2" d="M14.39,35.43c0.34-0.35,0.67-0.69,1.01-1.04c-0.03-0.03-0.06-0.06-0.09-0.09
					c-0.43,0.16-0.67,0.54-0.94,0.87c-0.04,0.04,0.03,0.17,0.05,0.26c-0.21-0.16-0.42-0.31-0.65-0.49c0.01,0.12,0.01,0.2,0.02,0.34
					c-0.29-0.21-0.51-0.22-0.6,0.04c0.31,0.17,0.57,0.33,0.91,0.51C14.15,35.75,14.27,35.59,14.39,35.43z M28.76,17.1
					c-0.09,0.06-0.18,0.13-0.3,0.21c-0.18,0.32-0.38,0.7-0.61,1.13c1.04-0.68,2.03-1.32,3.2-1.64c-0.25,0.27-0.53,0.48-0.83,0.67
					c-0.2,0.13-0.43,0.21-0.64,0.34c-0.3,0.17-0.58,0.36-0.89,0.55c0.16,0.27,0.4,0.22,0.61,0.1c0.81-0.46,1.64-0.87,2.63-1.09
					c-0.18,0.17-0.3,0.29-0.42,0.41c0.02,0.02,0.04,0.04,0.06,0.06c0.06-0.04,0.13-0.08,0.19-0.12c0.02,0.02,0.04,0.05,0.07,0.07
					c-0.15,0.14-0.3,0.29-0.48,0.45c-0.06-0.16-0.09-0.24-0.11-0.32c-0.03,0-0.05,0.01-0.08,0.01c0,0.15,0.01,0.3,0.01,0.35
					c0.27,0.07,0.48,0.12,0.67,0.17c-0.06,0.25-0.11,0.43-0.18,0.7c0.22-0.08,0.32-0.12,0.42-0.16c-0.26,0.2-0.11,0.37,0.09,0.56
					c-0.33,0.08-0.63,0.12-0.89,0.24c-0.22,0.1-0.39,0.29-0.62,0.47c-0.01-0.02,0.01,0.05,0.04,0.16c-0.08-0.03-0.14-0.06-0.18-0.08
					c-0.07,0.21-0.13,0.42-0.2,0.62c-0.06,0.01-0.2-0.01-0.29,0.05c-0.3,0.21-0.59,0.45-0.88,0.69c-0.12,0.1-0.22,0.23-0.36,0.38
					c0.17,0.07,0.25,0.1,0.33,0.13c-0.18,0.2-0.34,0.39-0.5,0.57c-0.02-0.02-0.04-0.03-0.06-0.05c0.02-0.07,0.05-0.14,0.1-0.28
					c-0.34,0.15-0.65,0.24-0.9,0.4c-0.1,0.07-0.11,0.3-0.12,0.46c0,0.04,0.16,0.09,0.3,0.16c-0.16,0.12-0.35,0.27-0.54,0.41
					c0.08,0.12,0.13,0.21,0.2,0.31c-0.64,0.49-1.31,0.76-2.11,0.76c-0.74,0-1.47,0.05-2.25,0.07c0.33-1.04,1.31-1.31,1.88-2.11
					c-0.63,0.49-1.17,0.9-1.79,1.39c0.02-0.19,0.02-0.26,0.03-0.26c0.33-0.07,0.43-0.34,0.55-0.6c0.05-0.13,0.09-0.28,0.18-0.38
					c0.86-1.05,1.74-2.09,2.6-3.14c0.31-0.38,0.59-0.78,0.88-1.17c-0.02-0.01-0.04-0.03-0.05-0.04c-1.16,1.36-2.33,2.72-3.49,4.08
					c-0.02-0.02-0.05-0.04-0.07-0.06c0.02-0.07,0.03-0.15,0.05-0.23c-0.08,0.05-0.15,0.09-0.22,0.14c-0.04-0.03-0.08-0.06-0.12-0.09
					c0.37-0.57,0.73-1.14,1.1-1.71c-0.32,0.43-0.78,0.44-1.2,0.38c-0.31-0.04-0.64-0.21-0.7-0.64c-0.11,0.29-0.22,0.58-0.33,0.87
					c-0.05-0.02-0.1-0.04-0.15-0.06c0.54-0.67-0.08-1.63,0.65-2.26c-0.13,0.05-0.21,0.14-0.3,0.2c-0.09,0.06-0.23,0.17-0.29,0.14
					c-0.09-0.04-0.15-0.18-0.17-0.29c-0.03-0.16-0.01-0.32-0.01-0.49c-0.02-0.75-0.04-1.49-0.08-2.24
					c-0.01-0.12-0.15-0.24-0.23-0.36c-0.11,0.41-0.15,0.78-0.17,1.14c-0.02,0.37-0.11,0.77-0.02,1.12c0.09,0.35-0.35,0.54-0.11,0.95
					c0.16,0.27,0.02,0.73,0,1.11c-0.01,0.31-0.04,0.62-0.06,0.93c-0.01,0-0.08-0.01-0.19-0.02c0.1,0.56,0.19,1.08,0.28,1.61
					c-0.03,0.01-0.07,0.02-0.1,0.03c-0.55-0.74-1.21-1.41-1.52-2.31c-0.32-0.94-0.65-1.87-0.89-2.83c-0.24-0.95-0.43-1.93-0.18-3.01
					c0.18,0.11,0.31,0.18,0.45,0.26c0.04-0.11,0.09-0.26,0.1-0.3c-0.16-0.12-0.3-0.31-0.42-0.3c-0.38,0.02-0.18-0.27-0.26-0.41
					c-0.04-0.06-0.03-0.16-0.02-0.24c0.13-1.62-0.01-3.3,1.04-4.72c0.44-0.59,0.47-1.39,1.05-1.91c0.29-0.25,0.5-0.58,0.79-0.84
					C21.88,6.23,22.11,6.1,22.34,6c0.38-0.16,0.33,0.23,0.46,0.39c0.02,0.02,0.09,0.01,0.17,0.01c-0.11,0.14-0.19,0.25-0.29,0.39
					c0.29-0.03,0.53-0.05,0.77-0.08c0.15,0.47-0.15,1.04,0.45,1.32c-0.12,0.07-0.18,0.11-0.23,0.14c0.16,0.17,0.36,0.3,0.42,0.48
					c0.08,0.24,0.04,0.52,0.07,0.78c0.02,0.13,0.06,0.27,0.15,0.36c0.12,0.13,0.28,0.22,0.43,0.33c-0.28,0.15-0.53,0.29-0.79,0.43
					c0.02,0.03,0.03,0.06,0.05,0.1c0.27-0.07,0.55-0.11,0.81-0.21c0.31-0.13,0.47,0.02,0.56,0.26c0.13,0.36,0.2,0.73,0.31,1.12
					c0.09,0.01,0.25,0.03,0.41,0.05c0,0.03,0,0.06,0,0.09c-0.31,0.08-0.62,0.16-0.93,0.24c0.12,0.08,0.22,0.08,0.32,0.07
					c0.32-0.05,0.64-0.13,0.96-0.16c0.39-0.04,0.71,0.03,0.86,0.48c0.07,0.21,0.27,0.37,0.42,0.55c-0.4-1.08-0.4-1.08-1.46-1.54
					c-0.3-0.13-0.49-0.34-0.52-0.67c-0.04-0.42-0.22-0.73-0.57-0.98c-0.36-0.26-0.58-0.6-0.59-1.1c0-0.37-0.15-0.73-0.23-1.1
					c-0.05-0.21-0.09-0.42-0.13-0.63c-0.09-0.61-0.1-1.25-0.27-1.83c-0.28-0.94-0.82-1.3-1.77-0.69c-0.09,0.06-0.18,0.12-0.26,0.19
					c-1.93,1.55-2.98,3.63-3.59,5.96c-0.36,1.36-0.23,2.75-0.14,4.13c0.17,2.73,1.13,5.24,2.18,7.73c0.26,0.62,0.59,1.2,0.87,1.75
					c-0.3,0-0.64,0.01-1.04,0.01c0.07,0.33,0.13,0.66,0.18,0.91c-0.89-0.08-1.86-0.18-2.84-0.27c-2.62-0.23-5.23-0.24-7.83,0.31
					c-3.19,0.68-5.63,2.36-7.21,5.22c-0.27,0.48-0.4,1.06-0.47,1.62c-0.06,0.49,0.26,0.81,0.75,0.91c0.7,0.14,1.4,0.14,2.08-0.14
					c0.15-0.06,0.34-0.05,0.51-0.05c0.34,0,0.68,0.07,1.01,0c0.57-0.11,1.02,0.07,1.48,0.39c0.23,0.16,0.54,0.28,0.81,0.28
					c0.47,0,0.81,0.15,1.06,0.55c0.08,0.13,0.16,0.25,0.26,0.37c0.26,0.31,0.68,0.43,1.01,0.24c-0.13,0-0.21,0.03-0.27-0.01
					c-0.23-0.12-0.54-0.17-0.54-0.54c0-0.51-0.02-1.02-0.03-1.54c-0.03-0.01-0.06-0.01-0.1-0.02c-0.08,0.33-0.16,0.66-0.25,1.04
					c-0.05,0-0.2,0.03-0.24-0.02c-0.22-0.28-0.53-0.32-0.86-0.36c-0.41-0.04-0.71-0.21-0.74-0.68c-0.01-0.21-0.05-0.42-0.07-0.63
					c-0.04,0-0.09,0-0.13,0c-0.02,0.24-0.04,0.48-0.06,0.74c-0.54-0.62-1.16-0.07-1.74-0.21c-0.04-0.09-0.1-0.19-0.13-0.26
					c-0.19,0.1-0.37,0.2-0.57,0.31c-0.04-0.43-0.21-0.38-0.42-0.18c-0.2,0.19-0.42,0.27-0.58-0.02c-0.13-0.22-0.19-0.48-0.27-0.71
					c-0.03,0.06-0.09,0.17-0.15,0.28c-0.08-0.07-0.13-0.17-0.21-0.19c-0.24-0.06-0.28-0.13-0.18-0.37c0.01-0.04,0.02-0.09,0-0.12
					c-0.13-0.27,0.02-0.96,0.23-1.19c0.26-0.28,0.52-0.57,0.75-0.87c0.11-0.14,0.15-0.33,0.24-0.52c0.32,0.18,0.63,0.36,0.69-0.19
					c0-0.04,0.11-0.06,0.17-0.09c0.15-0.1,0.3-0.2,0.46-0.3C5.97,28.04,5.96,28.02,5.95,28c-0.1,0.04-0.21,0.09-0.31,0.13
					c0.26-0.29,0.53-0.59,0.86-0.77c1.14-0.62,2.36-1.02,3.61-1.37c0.38-0.11,0.81,0.09,1.15-0.19c0.03-0.03,0.07-0.04,0.14-0.09
					c-0.04,0.11-0.06,0.18-0.1,0.29c0.12-0.04,0.28-0.03,0.32-0.1c0.18-0.31,0.48-0.4,0.79-0.4c1.62-0.02,3.24-0.07,4.85,0.02
					c0.87,0.05,1.72,0.36,2.69,0.58c-2.11,1.07-4.19,1.78-6.34,2.34c2.34-0.37,4.48-1.31,6.67-2.16c-0.29,0.41-0.59,0.78-0.92,1.12
					c-0.69,0.71-0.69,0.7-0.79,1.17c0.11-0.13,0.21-0.24,0.35-0.4c-0.07,0.15-0.12,0.25-0.17,0.35c0.02,0.01,0.03,0.02,0.05,0.03
					c0.36-0.4,0.72-0.81,1.1-1.23c0.04,0.28,0.07,0.52,0.11,0.8c0.13-0.18,0.2-0.32,0.31-0.41c0.21-0.18,0.43-0.36,0.68-0.48
					c0.21-0.09,0.46-0.09,0.79-0.14c0,0.1-0.03,0.27,0,0.42c0.04,0.16,0.14,0.32,0.23,0.46c0.07,0.11,0.21,0.2,0.24,0.32
					c0.12,0.46,0.16,0.94,0.31,1.39c0.12,0.36,0,0.53-0.34,0.68c-0.03-0.17-0.05-0.31-0.08-0.46c-0.04,0-0.08,0-0.12,0
					c0,0.1-0.03,0.21-0.01,0.31c0.03,0.15,0.15,0.32,0.11,0.45c-0.13,0.42,0.12,0.63,0.38,0.85c-0.38-0.02-0.76-0.04-1.15-0.06
					c0.08,0.65,0.29,0.75,1.07,0.54c-0.07-0.05-0.12-0.09-0.14-0.1c0.08-0.13,0.14-0.23,0.21-0.34c0.3,0.68,0.18,1.56,1.03,2.07
					c-0.21,0.08-0.34,0.13-0.43,0.16c-0.05,0.12-0.08,0.22-0.12,0.32c-0.16,0.35-0.05,0.75,0.27,1.02c0.12,0.11,0.23,0.24,0.34,0.36
					c-0.03,0.03-0.06,0.06-0.09,0.09c-0.09-0.08-0.19-0.17-0.37-0.33c0.21,0.5-0.21,0.45-0.42,0.64c0.14,0.11,0.26,0.19,0.41,0.31
					c-0.19,0.06-0.33,0.1-0.49,0.14c0.08,0.16,0.16,0.31,0.24,0.46c-0.05,0-0.14,0.01-0.23,0.02c0.23,0.3,0.21,0.36-0.09,0.53
					c-0.15-0.09-0.29-0.17-0.42-0.24c0,0.08,0,0.16-0.01,0.24c-0.16,0.02-0.31,0.04-0.47,0.06c0,0.06-0.01,0.12-0.01,0.18
					c0.17,0.06,0.35,0.12,0.52,0.18c-0.31,0.05-0.63,0.15-0.79-0.26c-0.02-0.06-0.13-0.08-0.21-0.11c0.15-0.43,0.11-0.83-0.14-1.3
					c-0.1,0.29-0.17,0.47-0.23,0.67c-0.1,0.37,0,0.52,0.4,0.63c-0.09,0.08-0.18,0.16-0.26,0.24c0.02,0.03,0.03,0.05,0.05,0.08
					c0.09-0.02,0.19-0.03,0.38-0.07c-0.23,0.17-0.38,0.28-0.54,0.39c-0.08-0.09-0.15-0.16-0.23-0.25c-0.2,0.69,0.42,0.32,0.58,0.49
					c-0.01,0.51-0.4,0.5-0.69,0.53c0.06,0.13,0.12,0.23,0.17,0.34c-0.06,0.03-0.15,0.09-0.16,0.08c-0.09-0.09-0.19-0.18-0.24-0.29
					c-0.03-0.08,0.05-0.22,0.01-0.29c-0.17-0.3-0.36-0.59-0.52-0.85c-0.02,0.06-0.05,0.18-0.09,0.31c-0.06-0.44-0.04-0.86-0.02-1.29
					c0-0.08-0.02-0.17-0.03-0.25c-0.11,0.04-0.24,0.05-0.31,0.13c-0.17,0.18-0.3,0.39-0.45,0.58c-0.05-0.06-0.09-0.11-0.12-0.15
					c-0.11,0.36-0.22,0.69-0.33,1.02c-0.03,0-0.06-0.01-0.09-0.01c-0.11-0.52-0.22-1.04-0.33-1.57c-0.37,0.16-0.75,0.32-1.18,0.51
					c0.03-0.34,0.04-0.63,0.09-0.92c0.07-0.44-0.49-0.33-0.55-0.65c0.12-0.03,0.24-0.05,0.28-0.06c-0.06-0.19-0.17-0.36-0.14-0.49
					c0.26-1.07,0.49-2.15,1-3.14c0.06-0.11,0.12-0.22,0.21-0.4c-0.07,0.06-0.09,0.07-0.11,0.09c-0.92,1.22-1.33,2.62-1.47,4.12
					c-0.1,1.08,0.22,2.06,0.76,2.99c0.12,0.21,0.29,0.36,0.53,0.25c0.47-0.22,0.78-0.02,1.06,0.33c0.26,0.32,0.53,0.54,0.97,0.35
					c0.09-0.04,0.23-0.03,0.31,0.02c0.29,0.17,0.58,0.34,0.83,0.56c0.31,0.27,0.58,0.49,1,0.19c0.09-0.06,0.25-0.03,0.38-0.01
					c0.55,0.06,0.85,0.49,1.23,0.81c0.33,0.28,0.52,0.28,0.78-0.07c0.21-0.28,0.47-0.36,0.8-0.41c0.43-0.06,0.72,0.16,1.03,0.38
					c0.51,0.36,0.73,0.3,0.91-0.31c0.2-0.65,0.67-0.96,1.27-1.12c0.58-0.15,0.65-0.22,0.63-0.83c-0.03-1.01-0.08-2.02-0.11-3.03
					c0-0.08,0.01-0.16,0-0.24c-0.05-0.36-0.04-0.73-0.16-1.07c-0.38-1.12-0.81-2.22-1.22-3.32c-0.15-0.41-0.28-0.83-0.45-1.22
					c-0.31-0.7-0.75-1.29-1.51-1.61c0.31,0,0.59,0.27,0.85-0.12c0.27-0.4-0.29-0.49-0.21-0.85c0.17,0.16,0.36,0.27,0.46,0.43
					c0.36,0.57,0.9,0.79,1.52,0.9c1.26,0.21,2.51,0.44,3.77,0.64c0.26,0.04,0.54,0.01,0.81-0.02c0.36-0.04,0.71-0.11,1.07-0.16
					c0.15-0.02,0.3,0.01,0.45-0.03c0.69-0.18,1.37-0.39,2.06-0.57c0.34-0.09,0.6-0.23,0.62-0.64c0.04-0.75,0.35-1.34,1.03-1.72
					c0.4-0.22,0.41-0.43,0.11-0.78c-0.13-0.15-0.29-0.28-0.42-0.44c-0.31-0.39-0.27-1.04,0.07-1.47c0.32-0.41,0.29-0.58-0.15-0.83
					c-0.15-0.09-0.3-0.17-0.46-0.26c-0.48-0.27-0.71-0.78-0.64-1.34c0.02-0.14-0.08-0.32-0.19-0.43c-0.14-0.14-0.36-0.21-0.49-0.36
					c-0.2-0.24-0.5-0.54-0.49-0.8c0.02-0.57-0.29-0.81-0.69-1.03c-0.33-0.17-0.48-0.43-0.43-0.79c0.04-0.27-0.05-0.46-0.29-0.56
					c-0.26-0.11-0.54-0.17-0.8-0.28c-0.78-0.3-1.56-0.33-2.34-0.01c-0.55,0.23-1.1,0.46-1.64,0.69
					C28.72,17.32,28.73,17.21,28.76,17.1c0.53-0.55,0.88-1.17,0.68-2c-0.12,0.16-0.21,0.28-0.3,0.4c0.11,0.14,0.18,0.31,0.13,0.43
					C29.12,16.32,28.93,16.71,28.76,17.1z M28.55,14.65c0.44-0.76,0.44-0.76-0.54-1.33c0.16,0.14,0.32,0.29,0.53,0.48
					c-0.35,0.01-0.62,0.01-0.9,0.05c-0.1,0.01-0.19,0.13-0.29,0.2c0.11,0.1,0.24,0.28,0.34,0.27c0.31-0.04,0.6-0.16,0.92-0.25
					C28.6,14.19,28.58,14.36,28.55,14.65z M12.24,35.57c0.39-0.26,0.18-0.55,0.12-0.83c-0.01-0.04-0.16-0.09-0.23-0.07
					c-0.07,0.02-0.15,0.12-0.15,0.18c-0.01,0.13,0.06,0.26,0.06,0.4c0.02,0.48,0.16,0.59,0.73,0.51
					C12.59,35.7,12.45,35.65,12.24,35.57z M21.17,34.35c-0.1,0.41-0.18,0.73-0.25,1.04C21.27,35.14,21.45,34.84,21.17,34.35z
					 M22.41,8.64c-0.03,0.29-0.5,0.39-0.18,0.75c0.17-0.13,0.31-0.24,0.45-0.35C22.6,8.91,22.54,8.82,22.41,8.64z M20.69,31.54
					c0.14-0.13,0.23-0.22,0.29-0.28c-0.2-0.15-0.38-0.28-0.55-0.41c-0.03,0.03-0.06,0.07-0.09,0.1
					C20.44,31.13,20.55,31.31,20.69,31.54z M26.95,15.88c0.02,0.01,0.04,0.03,0.06,0.04c0.3-0.4,0.6-0.81,0.9-1.21
					c-0.02-0.01-0.04-0.03-0.06-0.04C27.55,15.08,27.25,15.48,26.95,15.88z M28.38,15.68c-0.05,0.47,0.23,0.33,0.38,0.36
					c0.03,0.01,0.09-0.14,0.14-0.22C28.74,15.78,28.58,15.74,28.38,15.68z M20.77,37.54c-0.13-0.07-0.23-0.13-0.32-0.18
					c-0.07,0.14-0.14,0.27-0.21,0.41c0.03,0.02,0.05,0.03,0.08,0.05C20.44,37.74,20.56,37.66,20.77,37.54z"/>
				<path class="st8" d="M22.1,37.37c0-0.08,0-0.16,0.01-0.24c0.13,0.08,0.27,0.16,0.42,0.24c0.3-0.18,0.32-0.24,0.09-0.53
					c0.1-0.01,0.19-0.01,0.23-0.02c-0.08-0.15-0.15-0.3-0.24-0.46c0.15-0.05,0.3-0.09,0.49-0.14c-0.16-0.12-0.27-0.2-0.41-0.31
					c0.21-0.18,0.63-0.14,0.42-0.64c0.18,0.16,0.28,0.24,0.37,0.33c0.03-0.03,0.06-0.06,0.09-0.09c-0.11-0.12-0.21-0.25-0.34-0.36
					c-0.32-0.27-0.43-0.67-0.27-1.02c0.04-0.1,0.08-0.2,0.12-0.32c0.09-0.03,0.23-0.09,0.43-0.16c-0.85-0.51-0.73-1.38-1.03-2.07
					c0-0.01,0-0.02,0.01-0.04c-0.26-0.22-0.52-0.43-0.38-0.85c0.04-0.13-0.08-0.3-0.11-0.45c-0.02-0.1,0-0.2,0.01-0.31
					c0.04,0,0.08,0,0.12,0c0.02,0.14,0.05,0.28,0.08,0.46c0.33-0.15,0.45-0.32,0.34-0.68c-0.14-0.45-0.19-0.93-0.31-1.39
					c-0.03-0.12-0.17-0.21-0.24-0.32c-0.09-0.15-0.19-0.3-0.23-0.46c-0.04-0.15,0-0.32,0-0.42c-0.33,0.06-0.58,0.05-0.79,0.14
					c-0.25,0.11-0.47,0.3-0.68,0.48c-0.11,0.09-0.18,0.23-0.31,0.41c-0.04-0.29-0.07-0.52-0.11-0.8c-0.38,0.42-0.74,0.83-1.1,1.23
					c-0.02-0.01-0.03-0.02-0.05-0.03c0.05-0.1,0.1-0.2,0.17-0.35c-0.14,0.15-0.24,0.27-0.35,0.4c0.09-0.47,0.1-0.46,0.79-1.17
					c0.33-0.34,0.63-0.72,0.92-1.12c-2.18,0.84-4.33,1.79-6.67,2.16c2.15-0.56,4.23-1.27,6.34-2.34c-0.97-0.22-1.82-0.53-2.69-0.58
					c-1.61-0.09-3.23-0.03-4.85-0.02c-0.3,0-0.61,0.08-0.79,0.4c-0.04,0.07-0.19,0.06-0.32,0.1c0.04-0.11,0.06-0.17,0.1-0.29
					c-0.07,0.04-0.11,0.06-0.14,0.09c-0.35,0.28-0.77,0.09-1.15,0.19c-1.25,0.34-2.47,0.75-3.61,1.37c-0.33,0.18-0.6,0.48-0.86,0.77
					c0.1-0.04,0.21-0.09,0.31-0.13c0.01,0.02,0.02,0.04,0.03,0.06c-0.15,0.1-0.3,0.2-0.46,0.3c-0.06,0.04-0.17,0.05-0.17,0.09
					C5.29,29,4.98,28.82,4.66,28.64c-0.09,0.19-0.13,0.38-0.24,0.52c-0.23,0.3-0.49,0.59-0.75,0.87c-0.21,0.23-0.36,0.92-0.23,1.19
					c0.02,0.03,0.01,0.09,0,0.12c-0.09,0.24-0.05,0.31,0.18,0.37c0.07,0.02,0.13,0.11,0.21,0.19c0.06-0.11,0.12-0.22,0.15-0.28
					c0.08,0.23,0.14,0.49,0.27,0.71c0.16,0.28,0.38,0.21,0.58,0.02c0.2-0.19,0.37-0.25,0.42,0.18c0.2-0.11,0.38-0.21,0.57-0.31
					c0.03,0.07,0.09,0.17,0.13,0.26c0.58,0.14,1.2-0.41,1.74,0.21c0.02-0.26,0.04-0.5,0.06-0.74c0.04,0,0.09,0,0.13,0
					c0.02,0.21,0.06,0.42,0.07,0.63c0.03,0.46,0.33,0.64,0.74,0.68c0.33,0.03,0.63,0.07,0.86,0.36c0.04,0.05,0.19,0.02,0.24,0.02
					c0.09-0.38,0.17-0.71,0.25-1.04c0.03,0.01,0.06,0.01,0.1,0.02c0.01,0.51,0.03,1.02,0.03,1.54c0,0.37,0.31,0.42,0.54,0.54
					c0.06,0.03,0.15,0,0.27,0.01c-0.33,0.19-0.75,0.07-1.01-0.24c-0.1-0.11-0.18-0.24-0.26-0.37c-0.25-0.39-0.59-0.54-1.06-0.55
					c-0.27,0-0.58-0.12-0.81-0.28c-0.46-0.32-0.91-0.5-1.48-0.39c-0.32,0.06-0.67-0.01-1.01,0c-0.17,0-0.36-0.01-0.51,0.05
					c-0.68,0.28-1.38,0.28-2.08,0.14C2.27,32.97,1.94,32.65,2,32.16c0.07-0.55,0.2-1.13,0.47-1.62c1.58-2.86,4.02-4.54,7.21-5.22
					c2.6-0.55,5.2-0.54,7.83-0.31c0.97,0.08,1.94,0.18,2.84,0.27c-0.05-0.25-0.12-0.58-0.18-0.91c0.41,0,0.74-0.01,1.04-0.01
					c-0.28-0.55-0.61-1.14-0.87-1.75c-1.05-2.48-2-5-2.18-7.73c-0.09-1.38-0.22-2.78,0.14-4.13c0.61-2.33,1.67-4.41,3.59-5.96
					c0.08-0.07,0.17-0.13,0.26-0.19c0.95-0.61,1.5-0.24,1.77,0.69c0.17,0.59,0.18,1.22,0.27,1.83c0.03,0.21,0.08,0.42,0.13,0.63
					c0.08,0.37,0.23,0.73,0.23,1.1c0.01,0.49,0.23,0.84,0.59,1.1c0.35,0.25,0.53,0.56,0.57,0.98c0.03,0.33,0.22,0.54,0.52,0.67
					c1.06,0.46,1.06,0.46,1.46,1.54c-0.14-0.18-0.35-0.34-0.42-0.55c-0.15-0.45-0.47-0.52-0.86-0.48c-0.32,0.03-0.64,0.11-0.96,0.16
					c-0.1,0.02-0.2,0.02-0.32-0.07c0.31-0.08,0.62-0.16,0.93-0.24c0-0.03,0-0.06,0-0.09c-0.16-0.02-0.32-0.04-0.41-0.05
					c-0.1-0.39-0.18-0.76-0.31-1.12c-0.09-0.24-0.25-0.39-0.56-0.26c-0.25,0.11-0.54,0.14-0.81,0.21c-0.02-0.03-0.03-0.06-0.05-0.1
					c0.26-0.14,0.51-0.28,0.79-0.43c-0.15-0.11-0.31-0.2-0.43-0.33c-0.08-0.09-0.13-0.23-0.15-0.36c-0.04-0.26,0.01-0.54-0.07-0.78
					c-0.06-0.18-0.26-0.31-0.42-0.48c0.04-0.03,0.11-0.06,0.23-0.14c-0.6-0.28-0.3-0.84-0.45-1.32c-0.23,0.02-0.47,0.05-0.77,0.08
					c0.1-0.14,0.18-0.25,0.29-0.39c-0.08,0-0.15,0.02-0.17-0.01C22.67,6.24,22.72,5.84,22.34,6c-0.23,0.1-0.46,0.22-0.64,0.39
					c-0.28,0.26-0.5,0.59-0.79,0.84c-0.59,0.51-0.62,1.32-1.05,1.91c-1.05,1.41-0.91,3.1-1.04,4.72c-0.01,0.08-0.02,0.18,0.02,0.24
					c0.08,0.13-0.12,0.43,0.26,0.41c0.12-0.01,0.26,0.18,0.42,0.3c-0.01,0.04-0.06,0.19-0.1,0.3c-0.14-0.08-0.27-0.16-0.45-0.26
					c-0.25,1.08-0.06,2.06,0.18,3.01c0.24,0.96,0.57,1.89,0.89,2.83c0.31,0.9,0.97,1.57,1.52,2.31c0.03-0.01,0.07-0.02,0.1-0.03
					c-0.09-0.52-0.18-1.05-0.28-1.61c0.11,0.01,0.18,0.02,0.19,0.02c0.02-0.31,0.05-0.62,0.06-0.93c0.02-0.37,0.16-0.83,0-1.11
					c-0.24-0.41,0.21-0.6,0.11-0.95c-0.09-0.35,0-0.74,0.02-1.12c0.02-0.36,0.06-0.72,0.17-1.14c0.08,0.12,0.23,0.24,0.23,0.36
					c0.04,0.74,0.06,1.49,0.08,2.24c0,0.16-0.02,0.33,0.01,0.49c0.02,0.11,0.09,0.25,0.17,0.29c0.06,0.03,0.2-0.08,0.29-0.14
					c0.09-0.07,0.17-0.15,0.3-0.2c-0.73,0.63-0.11,1.59-0.65,2.26c0.05,0.02,0.1,0.04,0.15,0.06c0.11-0.29,0.22-0.58,0.33-0.87
					c0.06,0.43,0.39,0.59,0.7,0.64c0.42,0.06,0.88,0.05,1.2-0.38c-0.37,0.57-0.73,1.14-1.1,1.71c0.04,0.03,0.08,0.06,0.12,0.09
					c0.07-0.05,0.14-0.09,0.22-0.14c-0.02,0.08-0.04,0.15-0.05,0.23c0.02,0.02,0.05,0.04,0.07,0.06c1.16-1.36,2.33-2.72,3.49-4.08
					c0.02,0.01,0.04,0.03,0.05,0.04c-0.29,0.39-0.57,0.79-0.88,1.17c-0.86,1.05-1.74,2.09-2.6,3.14c-0.09,0.1-0.12,0.25-0.18,0.38
					c-0.11,0.26-0.22,0.53-0.55,0.6c-0.01,0-0.01,0.07-0.03,0.26c0.63-0.49,1.17-0.9,1.79-1.39c-0.58,0.8-1.56,1.08-1.88,2.11
					c0.78-0.03,1.52-0.08,2.25-0.07c0.8,0,1.47-0.27,2.11-0.76c-0.07-0.1-0.12-0.19-0.2-0.31c0.19-0.15,0.38-0.29,0.54-0.41
					c-0.14-0.07-0.3-0.12-0.3-0.16c0.01-0.16,0.02-0.4,0.12-0.46c0.25-0.17,0.56-0.26,0.9-0.4c-0.05,0.15-0.08,0.22-0.1,0.28
					c0.02,0.02,0.04,0.03,0.06,0.05c0.16-0.19,0.32-0.37,0.5-0.57c-0.08-0.03-0.16-0.07-0.33-0.13c0.14-0.15,0.24-0.28,0.36-0.38
					c0.29-0.24,0.58-0.47,0.88-0.69c0.09-0.06,0.22-0.04,0.29-0.05c0.06-0.2,0.13-0.41,0.2-0.62c0.05,0.02,0.1,0.04,0.18,0.08
					c-0.03-0.11-0.05-0.18-0.04-0.16c0.23-0.18,0.41-0.37,0.62-0.47c0.26-0.12,0.56-0.15,0.89-0.24c-0.2-0.19-0.35-0.36-0.09-0.56
					c-0.1,0.04-0.2,0.08-0.42,0.16c0.07-0.27,0.11-0.44,0.18-0.7c-0.18-0.05-0.39-0.1-0.67-0.17c0-0.05-0.01-0.2-0.01-0.35
					c0.03,0,0.05-0.01,0.08-0.01c0.03,0.08,0.06,0.16,0.11,0.32c0.17-0.17,0.33-0.31,0.48-0.45c-0.02-0.02-0.04-0.05-0.07-0.07
					c-0.06,0.04-0.13,0.08-0.19,0.12c-0.02-0.02-0.04-0.04-0.06-0.06c0.12-0.12,0.24-0.24,0.42-0.41c-0.99,0.22-1.82,0.64-2.63,1.09
					c-0.21,0.12-0.46,0.18-0.61-0.1c0.31-0.19,0.59-0.38,0.89-0.55c0.21-0.12,0.44-0.21,0.64-0.34c0.3-0.19,0.58-0.4,0.83-0.67
					c-1.17,0.32-2.17,0.96-3.2,1.64c0.23-0.43,0.44-0.81,0.61-1.13c0.12-0.09,0.21-0.15,0.3-0.21l-0.01,0
					c-0.01,0.11-0.03,0.22-0.04,0.33c0.55-0.23,1.09-0.46,1.64-0.69c0.78-0.33,1.56-0.3,2.34,0.01c0.26,0.1,0.54,0.16,0.8,0.28
					c0.24,0.1,0.33,0.3,0.29,0.56c-0.06,0.36,0.1,0.62,0.43,0.79c0.41,0.21,0.72,0.46,0.69,1.03c-0.01,0.26,0.29,0.55,0.49,0.8
					c0.12,0.15,0.35,0.21,0.49,0.36c0.1,0.11,0.2,0.29,0.19,0.43c-0.06,0.55,0.16,1.06,0.64,1.34c0.15,0.09,0.3,0.17,0.46,0.26
					c0.44,0.26,0.47,0.42,0.15,0.83c-0.34,0.43-0.38,1.08-0.07,1.47c0.13,0.16,0.29,0.29,0.42,0.44c0.3,0.34,0.29,0.56-0.11,0.78
					c-0.69,0.38-0.99,0.97-1.03,1.72c-0.02,0.41-0.27,0.55-0.62,0.64c-0.69,0.18-1.37,0.39-2.06,0.57c-0.14,0.04-0.3,0.01-0.45,0.03
					c-0.36,0.05-0.71,0.12-1.07,0.16c-0.27,0.03-0.54,0.06-0.81,0.02c-1.26-0.2-2.51-0.43-3.77-0.64c-0.62-0.1-1.17-0.32-1.52-0.9
					c-0.1-0.16-0.29-0.27-0.46-0.43c-0.08,0.36,0.48,0.45,0.21,0.85c-0.26,0.39-0.54,0.12-0.85,0.12c0.76,0.32,1.2,0.91,1.51,1.61
					c0.18,0.4,0.3,0.82,0.45,1.22c0.41,1.11,0.84,2.21,1.22,3.32c0.12,0.33,0.11,0.71,0.16,1.07c0.01,0.08,0,0.16,0,0.24
					c0.04,1.01,0.08,2.02,0.11,3.03c0.02,0.62-0.05,0.68-0.63,0.83c-0.6,0.16-1.08,0.47-1.27,1.12c-0.18,0.6-0.4,0.66-0.91,0.31
					c-0.31-0.22-0.61-0.44-1.03-0.38c-0.32,0.05-0.59,0.13-0.8,0.41c-0.26,0.35-0.45,0.35-0.78,0.07c-0.38-0.33-0.68-0.76-1.23-0.81
					c-0.13-0.01-0.29-0.05-0.38,0.01c-0.42,0.29-0.69,0.07-1-0.19c-0.25-0.22-0.54-0.39-0.83-0.56c-0.08-0.05-0.23-0.06-0.31-0.02
					c-0.44,0.2-0.72-0.03-0.97-0.35c-0.28-0.34-0.59-0.55-1.06-0.33c-0.24,0.11-0.41-0.03-0.53-0.25c-0.54-0.93-0.86-1.91-0.76-2.99
					c0.14-1.5,0.55-2.9,1.47-4.12c0.01-0.02,0.04-0.03,0.11-0.09c-0.09,0.17-0.15,0.28-0.21,0.4c-0.51,0.99-0.74,2.07-1,3.14
					c-0.03,0.13,0.08,0.3,0.14,0.49c-0.04,0.01-0.15,0.03-0.28,0.06c0.06,0.32,0.62,0.21,0.55,0.65c-0.05,0.29-0.06,0.58-0.09,0.92
					c0.44-0.19,0.81-0.35,1.18-0.51c0.11,0.53,0.22,1.05,0.33,1.57c0.03,0,0.06,0.01,0.09,0.01c0.11-0.33,0.21-0.66,0.33-1.02
					c0.03,0.04,0.07,0.08,0.12,0.15c0.15-0.19,0.28-0.4,0.45-0.58c0.07-0.07,0.21-0.09,0.31-0.13c0.01,0.08,0.03,0.17,0.03,0.25
					c-0.01,0.42-0.04,0.85,0.02,1.29c0.03-0.13,0.07-0.25,0.09-0.31c0.16,0.26,0.35,0.55,0.52,0.85c0.04,0.07-0.04,0.21-0.01,0.29
					c0.05,0.11,0.15,0.21,0.24,0.29c0.02,0.02,0.11-0.05,0.16-0.08c-0.05-0.11-0.11-0.21-0.17-0.34c0.29-0.03,0.68-0.02,0.69-0.53
					c-0.17-0.17-0.79,0.21-0.58-0.49c0.08,0.09,0.15,0.16,0.23,0.25c0.16-0.12,0.31-0.22,0.54-0.39c-0.19,0.03-0.29,0.05-0.38,0.07
					c-0.02-0.03-0.03-0.05-0.05-0.08c0.09-0.08,0.18-0.16,0.26-0.24c0,0-0.03,0-0.03,0c0.07,0.04,0.18,0.06,0.21,0.11
					c0.16,0.41,0.48,0.31,0.79,0.26C22.4,37.63,22.19,37.5,22.1,37.37z M24.62,25.53c0.16,0.08,0.28,0.19,0.41,0.21
					c0.47,0.06,0.96,0.04,1.42,0.15c0.33,0.07,0.44-0.03,0.54-0.34c-1.07-0.85-2.23-0.26-3.38-0.26
					C23.85,25.72,24.25,25.8,24.62,25.53z M30.25,23.37c-0.51-0.02-1-0.05-1.51-0.07c0.01,0.42-0.21,0.53-0.56,0.56
					c-0.18,0.02-0.49,0.07-0.31,0.38C28.83,24.36,29.49,23.72,30.25,23.37z M22.18,39.96c0.01-0.04,0.02-0.07,0.03-0.11
					c-0.2-0.19-0.4-0.39-0.6-0.58c-0.08,0.23-0.17,0.48-0.26,0.74C21.6,39.98,21.89,39.97,22.18,39.96z M18.39,13.87
					c0.05,0.01,0.11,0.01,0.16,0.02c0.06-0.51,0.11-1.02,0.17-1.52c-0.04-0.01-0.08-0.01-0.12-0.02
					C18.59,12.86,18.12,13.31,18.39,13.87z M23.54,34.78c0.01-0.28,0.01-0.52,0.02-0.81C23.06,34.46,23.06,34.48,23.54,34.78z
					 M24.05,36.01c-0.03,0.04-0.07,0.07-0.1,0.11c0.14,0.25,0.17,0.62,0.75,0.5C24.43,36.38,24.24,36.2,24.05,36.01z M25.03,40.44
					c0.05-0.05,0.1-0.1,0.16-0.15c-0.25-0.24-0.51-0.49-0.76-0.73c-0.03,0.03-0.06,0.06-0.09,0.09
					C24.57,39.91,24.8,40.18,25.03,40.44z M36.36,24.7c-0.02,0.03-0.05,0.06-0.07,0.1c0.27,0.18,0.55,0.36,0.87,0.58
					C37.03,24.91,36.67,24.84,36.36,24.7z"/>
				<path d="M28.55,14.65c0.03-0.29,0.05-0.46,0.06-0.59c-0.31,0.09-0.61,0.21-0.92,0.25c-0.1,0.01-0.23-0.17-0.34-0.27
					c0.1-0.07,0.19-0.18,0.29-0.2c0.27-0.04,0.55-0.03,0.9-0.05c-0.21-0.19-0.37-0.34-0.53-0.48
					C28.99,13.89,28.99,13.89,28.55,14.65z"/>
				<path d="M22.51,31.54c-0.01,0.02-0.02,0.03-0.01,0.04c-0.07,0.11-0.13,0.21-0.21,0.34c0.02,0.01,0.07,0.05,0.14,0.1
					c-0.78,0.2-0.99,0.11-1.07-0.54C21.75,31.5,22.13,31.52,22.51,31.54z"/>
				<path d="M14.39,35.43c-0.12,0.16-0.24,0.32-0.3,0.41c-0.33-0.19-0.6-0.34-0.91-0.51c0.09-0.27,0.31-0.25,0.6-0.04
					c-0.01-0.13-0.01-0.22-0.02-0.34c0.23,0.18,0.44,0.33,0.65,0.49C14.42,35.43,14.39,35.43,14.39,35.43z"/>
				<path d="M12.24,35.57c0.21,0.08,0.34,0.13,0.52,0.19c-0.57,0.08-0.71-0.03-0.73-0.51c-0.01-0.13-0.07-0.27-0.06-0.4
					c0-0.07,0.09-0.17,0.15-0.18c0.07-0.02,0.23,0.03,0.23,0.07C12.42,35.02,12.63,35.31,12.24,35.57z"/>
				<path d="M21.14,37.41c0,0,0.03,0,0.03,0c-0.4-0.11-0.5-0.27-0.4-0.63c0.05-0.19,0.13-0.38,0.23-0.67
					C21.25,36.58,21.29,36.98,21.14,37.41z"/>
				<path d="M14.39,35.43c0,0,0.03,0,0.03,0c-0.02-0.09-0.08-0.22-0.05-0.26c0.27-0.33,0.51-0.71,0.94-0.87
					c0.03,0.03,0.06,0.06,0.09,0.09C15.06,34.73,14.72,35.08,14.39,35.43z"/>
				<path d="M28.76,17.1c0.17-0.39,0.37-0.77,0.51-1.17c0.04-0.12-0.03-0.28-0.13-0.43c0.09-0.12,0.18-0.25,0.3-0.4
					C29.64,15.93,29.28,16.54,28.76,17.1C28.75,17.1,28.76,17.1,28.76,17.1z"/>
				<path d="M21.17,34.35c0.28,0.5,0.1,0.79-0.25,1.04C20.99,35.08,21.07,34.76,21.17,34.35z"/>
				<path d="M22.41,8.64c0.13,0.18,0.19,0.28,0.28,0.4c-0.14,0.11-0.28,0.22-0.45,0.35C21.91,9.03,22.38,8.93,22.41,8.64z"/>
				<path d="M22.1,37.37c0.09,0.13,0.29,0.26,0.03,0.42c-0.17-0.06-0.35-0.12-0.52-0.18c0-0.06,0.01-0.12,0.01-0.18
					C21.79,37.41,21.95,37.39,22.1,37.37z"/>
				<path d="M20.69,31.54c-0.14-0.24-0.25-0.42-0.36-0.59c0.03-0.03,0.06-0.07,0.09-0.1c0.17,0.13,0.35,0.26,0.55,0.41
					C20.92,31.33,20.83,31.41,20.69,31.54z"/>
				<path d="M26.95,15.88c0.3-0.4,0.6-0.81,0.9-1.21c0.02,0.01,0.04,0.03,0.06,0.04c-0.3,0.4-0.6,0.81-0.9,1.21
					C26.98,15.91,26.96,15.9,26.95,15.88z"/>
				<path d="M28.38,15.68c0.2,0.05,0.36,0.09,0.52,0.13c-0.05,0.08-0.11,0.23-0.14,0.22C28.6,16.01,28.32,16.15,28.38,15.68z"/>
				<path d="M20.77,37.54c-0.2,0.12-0.33,0.2-0.46,0.28c-0.03-0.02-0.05-0.03-0.08-0.05c0.07-0.14,0.14-0.27,0.21-0.41
					C20.54,37.41,20.63,37.47,20.77,37.54z"/>
				<path class="st2" d="M24.62,25.53c-0.38,0.27-0.77,0.19-1-0.24c1.14,0.01,2.31-0.59,3.38,0.26c-0.1,0.3-0.21,0.41-0.54,0.34
					c-0.46-0.1-0.95-0.09-1.42-0.15C24.9,25.72,24.78,25.61,24.62,25.53z"/>
				<path class="st2" d="M30.25,23.37c-0.75,0.35-1.41,0.98-2.38,0.87c-0.18-0.32,0.13-0.37,0.31-0.38
					c0.35-0.03,0.58-0.13,0.56-0.56C29.25,23.33,29.73,23.35,30.25,23.37z"/>
				<path class="st2" d="M22.18,39.96c-0.29,0.01-0.58,0.03-0.83,0.04c0.09-0.26,0.18-0.51,0.26-0.74c0.2,0.2,0.4,0.39,0.6,0.58
					C22.2,39.88,22.19,39.92,22.18,39.96z"/>
				<path class="st2" d="M18.39,13.87c-0.27-0.56,0.2-1.01,0.2-1.53c0.04,0.01,0.08,0.01,0.12,0.02c-0.06,0.51-0.11,1.02-0.17,1.52
					C18.5,13.88,18.44,13.87,18.39,13.87z"/>
				<path class="st2" d="M23.54,34.78c-0.48-0.3-0.48-0.32,0.02-0.81C23.55,34.25,23.54,34.5,23.54,34.78z"/>
				<path class="st2" d="M24.05,36.01c0.19,0.18,0.39,0.36,0.65,0.61c-0.58,0.12-0.61-0.26-0.75-0.5
					C23.98,36.08,24.01,36.05,24.05,36.01z"/>
				<path class="st2" d="M25.03,40.44c-0.23-0.26-0.46-0.53-0.7-0.79c0.03-0.03,0.06-0.06,0.09-0.09c0.25,0.24,0.51,0.49,0.76,0.73
					C25.13,40.34,25.08,40.39,25.03,40.44z"/>
				<path class="st2" d="M36.36,24.7c0.31,0.14,0.67,0.2,0.8,0.67c-0.32-0.22-0.6-0.4-0.87-0.58C36.31,24.77,36.34,24.74,36.36,24.7
					z"/>
			</g>
		</g>
		<text transform="matrix(1 0 0 1 36.6077 42.0929)" class="st8 st3 st9 st10">T.L.P.</text>
		<g id="_x39_YD7U7_2_">
			<g>
				<path class="st2" d="M14.83,35.21c0.34-0.35,0.67-0.69,1.01-1.04c-0.03-0.03-0.06-0.06-0.09-0.09
					c-0.43,0.16-0.67,0.54-0.94,0.87c-0.04,0.04,0.03,0.17,0.05,0.26c-0.21-0.16-0.42-0.31-0.65-0.49c0.01,0.12,0.01,0.2,0.02,0.34
					c-0.29-0.21-0.51-0.22-0.6,0.04c0.31,0.17,0.57,0.33,0.91,0.51C14.59,35.53,14.71,35.37,14.83,35.21z M29.19,16.88
					c-0.09,0.06-0.18,0.13-0.3,0.21c-0.18,0.32-0.38,0.7-0.61,1.13c1.04-0.68,2.03-1.32,3.2-1.64c-0.25,0.27-0.53,0.48-0.83,0.67
					c-0.2,0.13-0.43,0.21-0.64,0.34c-0.3,0.17-0.58,0.36-0.89,0.55c0.16,0.27,0.4,0.22,0.61,0.1c0.81-0.46,1.64-0.87,2.63-1.09
					c-0.18,0.17-0.3,0.29-0.42,0.41c0.02,0.02,0.04,0.04,0.06,0.06c0.06-0.04,0.13-0.08,0.19-0.12c0.02,0.02,0.04,0.05,0.07,0.07
					c-0.15,0.14-0.3,0.29-0.48,0.45c-0.06-0.16-0.09-0.24-0.11-0.32c-0.03,0-0.05,0.01-0.08,0.01c0,0.15,0.01,0.3,0.01,0.35
					c0.27,0.07,0.48,0.12,0.67,0.17c-0.06,0.25-0.11,0.43-0.18,0.7c0.22-0.08,0.32-0.12,0.42-0.16c-0.26,0.2-0.11,0.37,0.09,0.56
					c-0.33,0.08-0.63,0.12-0.89,0.24c-0.22,0.1-0.39,0.29-0.62,0.47c-0.01-0.02,0.01,0.05,0.04,0.16c-0.08-0.03-0.14-0.06-0.18-0.08
					c-0.07,0.21-0.13,0.42-0.2,0.62c-0.06,0.01-0.2-0.01-0.29,0.05c-0.3,0.21-0.59,0.45-0.88,0.69c-0.12,0.1-0.22,0.23-0.36,0.38
					c0.17,0.07,0.25,0.1,0.33,0.13c-0.18,0.2-0.34,0.39-0.5,0.57c-0.02-0.02-0.04-0.03-0.06-0.05c0.02-0.07,0.05-0.14,0.1-0.28
					c-0.34,0.15-0.65,0.24-0.9,0.4c-0.1,0.07-0.11,0.3-0.12,0.46c0,0.04,0.16,0.09,0.3,0.16c-0.16,0.12-0.35,0.27-0.54,0.41
					c0.08,0.12,0.13,0.21,0.2,0.31c-0.64,0.49-1.31,0.76-2.11,0.76c-0.74,0-1.47,0.05-2.25,0.07c0.33-1.04,1.31-1.31,1.88-2.11
					c-0.63,0.49-1.17,0.9-1.79,1.39c0.02-0.19,0.02-0.26,0.03-0.26c0.33-0.07,0.43-0.34,0.55-0.6c0.05-0.13,0.09-0.28,0.18-0.38
					c0.86-1.05,1.74-2.09,2.6-3.14c0.31-0.38,0.59-0.78,0.88-1.17c-0.02-0.01-0.04-0.03-0.05-0.04c-1.16,1.36-2.33,2.72-3.49,4.08
					c-0.02-0.02-0.05-0.04-0.07-0.06c0.02-0.07,0.03-0.15,0.05-0.23c-0.08,0.05-0.15,0.09-0.22,0.14c-0.04-0.03-0.08-0.06-0.12-0.09
					c0.37-0.57,0.73-1.14,1.1-1.71c-0.32,0.43-0.78,0.44-1.2,0.38c-0.31-0.04-0.64-0.21-0.7-0.64c-0.11,0.29-0.22,0.58-0.33,0.87
					c-0.05-0.02-0.1-0.04-0.15-0.06c0.54-0.67-0.08-1.63,0.65-2.26c-0.13,0.05-0.21,0.14-0.3,0.2c-0.09,0.06-0.23,0.17-0.29,0.14
					c-0.09-0.04-0.15-0.18-0.17-0.29c-0.03-0.16-0.01-0.32-0.01-0.49c-0.02-0.75-0.04-1.49-0.08-2.24
					c-0.01-0.12-0.15-0.24-0.23-0.36c-0.11,0.41-0.15,0.78-0.17,1.14c-0.02,0.37-0.11,0.77-0.02,1.12c0.09,0.35-0.35,0.54-0.11,0.95
					c0.16,0.27,0.02,0.73,0,1.11c-0.01,0.31-0.04,0.62-0.06,0.93c-0.01,0-0.08-0.01-0.19-0.02c0.1,0.56,0.19,1.08,0.28,1.61
					c-0.03,0.01-0.07,0.02-0.1,0.03c-0.55-0.74-1.21-1.41-1.52-2.31c-0.32-0.94-0.65-1.87-0.89-2.83c-0.24-0.95-0.43-1.93-0.18-3.01
					c0.18,0.11,0.31,0.18,0.45,0.26c0.04-0.11,0.09-0.26,0.1-0.3c-0.16-0.12-0.3-0.31-0.42-0.3c-0.38,0.02-0.18-0.27-0.26-0.41
					c-0.04-0.06-0.03-0.16-0.02-0.24c0.13-1.62-0.01-3.3,1.04-4.72c0.44-0.59,0.47-1.39,1.05-1.91c0.29-0.25,0.5-0.58,0.79-0.84
					c0.18-0.17,0.41-0.29,0.64-0.39c0.38-0.16,0.33,0.23,0.46,0.39c0.02,0.02,0.09,0.01,0.17,0.01c-0.11,0.14-0.19,0.25-0.29,0.39
					c0.29-0.03,0.53-0.05,0.77-0.08c0.15,0.47-0.15,1.04,0.45,1.32c-0.12,0.07-0.18,0.11-0.23,0.14c0.16,0.17,0.36,0.3,0.42,0.48
					c0.08,0.24,0.04,0.52,0.07,0.78c0.02,0.13,0.06,0.27,0.15,0.36c0.12,0.13,0.28,0.22,0.43,0.33c-0.28,0.15-0.53,0.29-0.79,0.43
					c0.02,0.03,0.03,0.06,0.05,0.1c0.27-0.07,0.55-0.11,0.81-0.21c0.31-0.13,0.47,0.02,0.56,0.26c0.13,0.36,0.2,0.73,0.31,1.12
					c0.09,0.01,0.25,0.03,0.41,0.05c0,0.03,0,0.06,0,0.09c-0.31,0.08-0.62,0.16-0.93,0.24c0.12,0.08,0.22,0.08,0.32,0.07
					c0.32-0.05,0.64-0.13,0.96-0.16c0.39-0.04,0.71,0.03,0.86,0.48c0.07,0.21,0.27,0.37,0.42,0.55c-0.4-1.08-0.4-1.08-1.46-1.54
					c-0.3-0.13-0.49-0.34-0.52-0.67c-0.04-0.42-0.22-0.73-0.57-0.98C25.22,9.48,25,9.13,25,8.64c0-0.37-0.15-0.73-0.23-1.1
					c-0.05-0.21-0.09-0.42-0.13-0.63c-0.09-0.61-0.1-1.25-0.27-1.83c-0.28-0.94-0.82-1.3-1.77-0.69c-0.09,0.06-0.18,0.12-0.26,0.19
					c-1.93,1.55-2.98,3.63-3.59,5.96c-0.36,1.36-0.23,2.75-0.14,4.13c0.17,2.73,1.13,5.24,2.18,7.73c0.26,0.62,0.59,1.2,0.87,1.75
					c-0.3,0-0.64,0.01-1.04,0.01c0.07,0.33,0.13,0.66,0.18,0.91c-0.89-0.08-1.86-0.18-2.84-0.27c-2.62-0.23-5.23-0.24-7.83,0.31
					c-3.19,0.68-5.63,2.36-7.21,5.22c-0.27,0.48-0.4,1.06-0.47,1.62c-0.06,0.49,0.26,0.81,0.75,0.91c0.7,0.14,1.4,0.14,2.08-0.14
					c0.15-0.06,0.34-0.05,0.51-0.05c0.34,0,0.68,0.07,1.01,0c0.57-0.11,1.02,0.07,1.48,0.39c0.23,0.16,0.54,0.28,0.81,0.28
					c0.47,0,0.81,0.15,1.06,0.55c0.08,0.13,0.16,0.25,0.26,0.37c0.26,0.31,0.68,0.43,1.01,0.24c-0.13,0-0.21,0.03-0.27-0.01
					c-0.23-0.12-0.54-0.17-0.54-0.54c0-0.51-0.02-1.02-0.03-1.54c-0.03-0.01-0.06-0.01-0.1-0.02c-0.08,0.33-0.16,0.66-0.25,1.04
					c-0.05,0-0.2,0.03-0.24-0.02c-0.22-0.28-0.53-0.32-0.86-0.36C8.72,33,8.42,32.83,8.39,32.36c-0.01-0.21-0.05-0.42-0.07-0.63
					c-0.04,0-0.09,0-0.13,0c-0.02,0.24-0.04,0.48-0.06,0.74c-0.54-0.62-1.16-0.07-1.74-0.21c-0.04-0.09-0.1-0.19-0.13-0.26
					c-0.19,0.1-0.37,0.2-0.57,0.31c-0.04-0.43-0.21-0.38-0.42-0.18c-0.2,0.19-0.42,0.27-0.58-0.02c-0.13-0.22-0.19-0.48-0.27-0.71
					c-0.03,0.06-0.09,0.17-0.15,0.28c-0.08-0.07-0.13-0.17-0.21-0.19c-0.24-0.06-0.28-0.13-0.18-0.37c0.01-0.04,0.02-0.09,0-0.12
					c-0.13-0.27,0.02-0.96,0.23-1.19c0.26-0.28,0.52-0.57,0.75-0.87c0.11-0.14,0.15-0.33,0.24-0.52c0.32,0.18,0.63,0.36,0.69-0.19
					c0-0.04,0.11-0.06,0.17-0.09c0.15-0.1,0.3-0.2,0.46-0.3c-0.01-0.02-0.02-0.04-0.03-0.06c-0.1,0.04-0.21,0.09-0.31,0.13
					c0.26-0.29,0.53-0.59,0.86-0.77c1.14-0.62,2.36-1.02,3.61-1.37c0.38-0.11,0.81,0.09,1.15-0.19c0.03-0.03,0.07-0.04,0.14-0.09
					c-0.04,0.11-0.06,0.18-0.1,0.29c0.12-0.04,0.28-0.03,0.32-0.1c0.18-0.31,0.48-0.4,0.79-0.4c1.62-0.02,3.24-0.07,4.85,0.02
					c0.87,0.05,1.72,0.36,2.69,0.58c-2.11,1.07-4.19,1.78-6.34,2.34c2.34-0.37,4.48-1.31,6.67-2.16c-0.29,0.41-0.59,0.78-0.92,1.12
					c-0.69,0.71-0.69,0.7-0.79,1.17c0.11-0.13,0.21-0.24,0.35-0.4c-0.07,0.15-0.12,0.25-0.17,0.35c0.02,0.01,0.03,0.02,0.05,0.03
					c0.36-0.4,0.72-0.81,1.1-1.23c0.04,0.28,0.07,0.52,0.11,0.8c0.13-0.18,0.2-0.32,0.31-0.41c0.21-0.18,0.43-0.36,0.68-0.48
					c0.21-0.09,0.46-0.09,0.79-0.14c0,0.1-0.03,0.27,0,0.42c0.04,0.16,0.14,0.32,0.23,0.46c0.07,0.11,0.21,0.2,0.24,0.32
					c0.12,0.46,0.16,0.94,0.31,1.39c0.12,0.36,0,0.53-0.34,0.68c-0.03-0.17-0.05-0.31-0.08-0.46c-0.04,0-0.08,0-0.12,0
					c0,0.1-0.03,0.21-0.01,0.31c0.03,0.15,0.15,0.32,0.11,0.45c-0.13,0.42,0.12,0.63,0.38,0.85c-0.38-0.02-0.76-0.04-1.15-0.06
					c0.08,0.65,0.29,0.75,1.07,0.54c-0.07-0.05-0.12-0.09-0.14-0.1c0.08-0.13,0.14-0.23,0.21-0.34c0.3,0.68,0.18,1.56,1.03,2.07
					c-0.21,0.08-0.34,0.13-0.43,0.16c-0.05,0.12-0.08,0.22-0.12,0.32c-0.16,0.35-0.05,0.75,0.27,1.02c0.12,0.11,0.23,0.24,0.34,0.36
					c-0.03,0.03-0.06,0.06-0.09,0.09c-0.09-0.08-0.19-0.17-0.37-0.33c0.21,0.5-0.21,0.45-0.42,0.64c0.14,0.11,0.26,0.19,0.41,0.31
					c-0.19,0.06-0.33,0.1-0.49,0.14c0.08,0.16,0.16,0.31,0.24,0.46c-0.05,0-0.14,0.01-0.23,0.02c0.23,0.3,0.21,0.36-0.09,0.53
					c-0.15-0.09-0.29-0.17-0.42-0.24c0,0.08,0,0.16-0.01,0.24c-0.16,0.02-0.31,0.04-0.47,0.06c0,0.06-0.01,0.12-0.01,0.18
					c0.17,0.06,0.35,0.12,0.52,0.18c-0.31,0.05-0.63,0.15-0.79-0.26c-0.02-0.06-0.13-0.08-0.21-0.11c0.15-0.43,0.11-0.83-0.14-1.3
					c-0.1,0.29-0.17,0.47-0.23,0.67c-0.1,0.37,0,0.52,0.4,0.63c-0.09,0.08-0.18,0.16-0.26,0.24c0.02,0.03,0.03,0.05,0.05,0.08
					c0.09-0.02,0.19-0.03,0.38-0.07c-0.23,0.17-0.38,0.28-0.54,0.39c-0.08-0.09-0.15-0.16-0.23-0.25c-0.2,0.69,0.42,0.32,0.58,0.49
					c-0.01,0.51-0.4,0.5-0.69,0.53c0.06,0.13,0.12,0.23,0.17,0.34c-0.06,0.03-0.15,0.09-0.16,0.08c-0.09-0.09-0.19-0.18-0.24-0.29
					c-0.03-0.08,0.05-0.22,0.01-0.29c-0.17-0.3-0.36-0.59-0.52-0.85c-0.02,0.06-0.05,0.18-0.09,0.31c-0.06-0.44-0.04-0.86-0.02-1.29
					c0-0.08-0.02-0.17-0.03-0.25c-0.11,0.04-0.24,0.05-0.31,0.13c-0.17,0.18-0.3,0.39-0.45,0.58c-0.05-0.06-0.09-0.11-0.12-0.15
					c-0.11,0.36-0.22,0.69-0.33,1.02c-0.03,0-0.06-0.01-0.09-0.01c-0.11-0.52-0.22-1.04-0.33-1.57c-0.37,0.16-0.75,0.32-1.18,0.51
					c0.03-0.34,0.04-0.63,0.09-0.92c0.07-0.44-0.49-0.33-0.55-0.65c0.12-0.03,0.24-0.05,0.28-0.06c-0.06-0.19-0.17-0.36-0.14-0.49
					c0.26-1.07,0.49-2.15,1-3.14c0.06-0.11,0.12-0.22,0.21-0.4c-0.07,0.06-0.09,0.07-0.11,0.09c-0.92,1.22-1.33,2.62-1.47,4.12
					c-0.1,1.08,0.22,2.06,0.76,2.99c0.12,0.21,0.29,0.36,0.53,0.25c0.47-0.22,0.78-0.02,1.06,0.33c0.26,0.32,0.53,0.54,0.97,0.35
					c0.09-0.04,0.23-0.03,0.31,0.02c0.29,0.17,0.58,0.34,0.83,0.56c0.31,0.27,0.58,0.49,1,0.19c0.09-0.06,0.25-0.03,0.38-0.01
					c0.55,0.06,0.85,0.49,1.23,0.81c0.33,0.28,0.52,0.28,0.78-0.07c0.21-0.28,0.47-0.36,0.8-0.41c0.43-0.06,0.72,0.16,1.03,0.38
					c0.51,0.36,0.73,0.3,0.91-0.31c0.2-0.65,0.67-0.96,1.27-1.12c0.58-0.15,0.65-0.22,0.63-0.83c-0.03-1.01-0.08-2.02-0.11-3.03
					c0-0.08,0.01-0.16,0-0.24c-0.05-0.36-0.04-0.73-0.16-1.07c-0.38-1.12-0.81-2.22-1.22-3.32c-0.15-0.41-0.28-0.83-0.45-1.22
					c-0.31-0.7-0.75-1.29-1.51-1.61c0.31,0,0.59,0.27,0.85-0.12c0.27-0.4-0.29-0.49-0.21-0.85c0.17,0.16,0.36,0.27,0.46,0.43
					c0.36,0.57,0.9,0.79,1.52,0.9c1.26,0.21,2.51,0.44,3.77,0.64c0.26,0.04,0.54,0.01,0.81-0.02c0.36-0.04,0.71-0.11,1.07-0.16
					c0.15-0.02,0.3,0.01,0.45-0.03c0.69-0.18,1.37-0.39,2.06-0.57c0.34-0.09,0.6-0.23,0.62-0.64c0.04-0.75,0.35-1.34,1.03-1.72
					c0.4-0.22,0.41-0.43,0.11-0.78c-0.13-0.15-0.29-0.28-0.42-0.44c-0.31-0.39-0.27-1.04,0.07-1.47c0.32-0.41,0.29-0.58-0.15-0.83
					c-0.15-0.09-0.3-0.17-0.46-0.26c-0.48-0.27-0.71-0.78-0.64-1.34c0.02-0.14-0.08-0.32-0.19-0.43c-0.14-0.14-0.36-0.21-0.49-0.36
					c-0.2-0.24-0.5-0.54-0.49-0.8c0.02-0.57-0.29-0.81-0.69-1.03c-0.33-0.17-0.48-0.43-0.43-0.79c0.04-0.27-0.05-0.46-0.29-0.56
					c-0.26-0.11-0.54-0.17-0.8-0.28c-0.78-0.3-1.56-0.33-2.34-0.01c-0.55,0.23-1.1,0.46-1.64,0.69
					C29.16,17.1,29.17,16.99,29.19,16.88c0.53-0.55,0.88-1.17,0.68-2c-0.12,0.16-0.21,0.28-0.3,0.4c0.11,0.14,0.18,0.31,0.13,0.43
					C29.56,16.11,29.37,16.49,29.19,16.88z M28.99,14.43c0.44-0.76,0.44-0.76-0.54-1.33c0.16,0.14,0.32,0.29,0.53,0.48
					c-0.35,0.01-0.62,0.01-0.9,0.05c-0.1,0.01-0.19,0.13-0.29,0.2c0.11,0.1,0.24,0.28,0.34,0.27c0.31-0.04,0.6-0.16,0.92-0.25
					C29.04,13.97,29.02,14.14,28.99,14.43z M12.68,35.35c0.39-0.26,0.18-0.55,0.12-0.83c-0.01-0.04-0.16-0.09-0.23-0.07
					c-0.07,0.02-0.15,0.12-0.15,0.18c-0.01,0.13,0.06,0.26,0.06,0.4c0.02,0.48,0.16,0.59,0.73,0.51
					C13.02,35.48,12.89,35.43,12.68,35.35z M21.61,34.13c-0.1,0.41-0.18,0.73-0.25,1.04C21.71,34.92,21.89,34.63,21.61,34.13z
					 M22.85,8.42c-0.03,0.29-0.5,0.39-0.18,0.75c0.17-0.13,0.31-0.24,0.45-0.35C23.04,8.69,22.97,8.6,22.85,8.42z M21.13,31.33
					c0.14-0.13,0.23-0.22,0.29-0.28c-0.2-0.15-0.38-0.28-0.55-0.41c-0.03,0.03-0.06,0.07-0.09,0.1
					C20.88,30.91,20.99,31.09,21.13,31.33z M27.38,15.67c0.02,0.01,0.04,0.03,0.06,0.04c0.3-0.4,0.6-0.81,0.9-1.21
					c-0.02-0.01-0.04-0.03-0.06-0.04C27.99,14.86,27.68,15.26,27.38,15.67z M28.81,15.47c-0.05,0.47,0.23,0.33,0.38,0.36
					c0.03,0.01,0.09-0.14,0.14-0.22C29.18,15.56,29.02,15.52,28.81,15.47z M21.2,37.32c-0.13-0.07-0.23-0.13-0.32-0.18
					c-0.07,0.14-0.14,0.27-0.21,0.41c0.03,0.02,0.05,0.03,0.08,0.05C20.88,37.52,21,37.44,21.2,37.32z"/>
				<path class="st8" d="M22.54,37.15c0-0.08,0-0.16,0.01-0.24c0.13,0.08,0.27,0.16,0.42,0.24c0.3-0.18,0.32-0.24,0.09-0.53
					c0.1-0.01,0.19-0.01,0.23-0.02c-0.08-0.15-0.15-0.3-0.24-0.46c0.15-0.05,0.3-0.09,0.49-0.14c-0.16-0.12-0.27-0.2-0.41-0.31
					c0.21-0.18,0.63-0.14,0.42-0.64c0.18,0.16,0.28,0.24,0.37,0.33c0.03-0.03,0.06-0.06,0.09-0.09c-0.11-0.12-0.21-0.25-0.34-0.36
					c-0.32-0.27-0.43-0.67-0.27-1.02c0.04-0.1,0.08-0.2,0.12-0.32c0.09-0.03,0.23-0.09,0.43-0.16c-0.85-0.51-0.73-1.38-1.03-2.07
					c0-0.01,0-0.02,0.01-0.04c-0.26-0.22-0.52-0.43-0.38-0.85c0.04-0.13-0.08-0.3-0.11-0.45c-0.02-0.1,0-0.2,0.01-0.31
					c0.04,0,0.08,0,0.12,0c0.02,0.14,0.05,0.28,0.08,0.46c0.33-0.15,0.45-0.32,0.34-0.68c-0.14-0.45-0.19-0.93-0.31-1.39
					c-0.03-0.12-0.17-0.21-0.24-0.32c-0.09-0.15-0.19-0.3-0.23-0.46c-0.04-0.15,0-0.32,0-0.42c-0.33,0.06-0.58,0.05-0.79,0.14
					c-0.25,0.11-0.47,0.3-0.68,0.48c-0.11,0.09-0.18,0.23-0.31,0.41c-0.04-0.29-0.07-0.52-0.11-0.8c-0.38,0.42-0.74,0.83-1.1,1.23
					c-0.02-0.01-0.03-0.02-0.05-0.03c0.05-0.1,0.1-0.2,0.17-0.35c-0.14,0.15-0.24,0.27-0.35,0.4c0.09-0.47,0.1-0.46,0.79-1.17
					c0.33-0.34,0.63-0.72,0.92-1.12c-2.18,0.84-4.33,1.79-6.67,2.16c2.15-0.56,4.23-1.27,6.34-2.34c-0.97-0.22-1.82-0.53-2.69-0.58
					c-1.61-0.09-3.23-0.03-4.85-0.02c-0.3,0-0.61,0.08-0.79,0.4c-0.04,0.07-0.19,0.06-0.32,0.1c0.04-0.11,0.06-0.17,0.1-0.29
					c-0.07,0.04-0.11,0.06-0.14,0.09c-0.35,0.28-0.77,0.09-1.15,0.19c-1.25,0.34-2.47,0.75-3.61,1.37c-0.33,0.18-0.6,0.48-0.86,0.77
					c0.1-0.04,0.21-0.09,0.31-0.13c0.01,0.02,0.02,0.04,0.03,0.06c-0.15,0.1-0.3,0.2-0.46,0.3c-0.06,0.04-0.17,0.05-0.17,0.09
					c-0.06,0.55-0.37,0.37-0.69,0.19c-0.09,0.19-0.13,0.38-0.24,0.52c-0.23,0.3-0.49,0.59-0.75,0.87c-0.21,0.23-0.36,0.92-0.23,1.19
					c0.02,0.03,0.01,0.09,0,0.12c-0.09,0.24-0.05,0.31,0.18,0.37c0.07,0.02,0.13,0.11,0.21,0.19c0.06-0.11,0.12-0.22,0.15-0.28
					c0.08,0.23,0.14,0.49,0.27,0.71c0.16,0.28,0.38,0.21,0.58,0.02c0.2-0.19,0.37-0.25,0.42,0.18c0.2-0.11,0.38-0.21,0.57-0.31
					c0.03,0.07,0.09,0.17,0.13,0.26c0.58,0.14,1.2-0.41,1.74,0.21c0.02-0.26,0.04-0.5,0.06-0.74c0.04,0,0.09,0,0.13,0
					c0.02,0.21,0.06,0.42,0.07,0.63c0.03,0.46,0.33,0.64,0.74,0.68c0.33,0.03,0.63,0.07,0.86,0.36c0.04,0.05,0.19,0.02,0.24,0.02
					c0.09-0.38,0.17-0.71,0.25-1.04c0.03,0.01,0.06,0.01,0.1,0.02c0.01,0.51,0.03,1.02,0.03,1.54c0,0.37,0.31,0.42,0.54,0.54
					c0.06,0.03,0.15,0,0.27,0.01c-0.33,0.19-0.75,0.07-1.01-0.24c-0.1-0.11-0.18-0.24-0.26-0.37c-0.25-0.39-0.59-0.54-1.06-0.55
					c-0.27,0-0.58-0.12-0.81-0.28c-0.46-0.32-0.91-0.5-1.48-0.39c-0.32,0.06-0.67-0.01-1.01,0c-0.17,0-0.36-0.01-0.51,0.05
					c-0.68,0.28-1.38,0.28-2.08,0.14c-0.48-0.09-0.81-0.42-0.75-0.91c0.07-0.55,0.2-1.13,0.47-1.62c1.58-2.86,4.02-4.54,7.21-5.22
					c2.6-0.55,5.2-0.54,7.83-0.31c0.97,0.08,1.94,0.18,2.84,0.27c-0.05-0.25-0.12-0.58-0.18-0.91c0.41,0,0.74-0.01,1.04-0.01
					c-0.28-0.55-0.61-1.14-0.87-1.75c-1.05-2.48-2-5-2.18-7.73c-0.09-1.38-0.22-2.78,0.14-4.13c0.61-2.33,1.67-4.41,3.59-5.96
					c0.08-0.07,0.17-0.13,0.26-0.19c0.95-0.61,1.5-0.24,1.77,0.69c0.17,0.59,0.18,1.22,0.27,1.83c0.03,0.21,0.08,0.42,0.13,0.63
					c0.08,0.37,0.23,0.73,0.23,1.1c0.01,0.49,0.23,0.84,0.59,1.1c0.35,0.25,0.53,0.56,0.57,0.98c0.03,0.33,0.22,0.54,0.52,0.67
					c1.06,0.46,1.06,0.46,1.46,1.54c-0.14-0.18-0.35-0.34-0.42-0.55c-0.15-0.45-0.47-0.52-0.86-0.48c-0.32,0.03-0.64,0.11-0.96,0.16
					c-0.1,0.02-0.2,0.02-0.32-0.07c0.31-0.08,0.62-0.16,0.93-0.24c0-0.03,0-0.06,0-0.09c-0.16-0.02-0.32-0.04-0.41-0.05
					c-0.1-0.39-0.18-0.76-0.31-1.12c-0.09-0.24-0.25-0.39-0.56-0.26c-0.25,0.11-0.54,0.14-0.81,0.21c-0.02-0.03-0.03-0.06-0.05-0.1
					c0.26-0.14,0.51-0.28,0.79-0.43c-0.15-0.11-0.31-0.2-0.43-0.33c-0.08-0.09-0.13-0.23-0.15-0.36c-0.04-0.26,0.01-0.54-0.07-0.78
					c-0.06-0.18-0.26-0.31-0.42-0.48c0.04-0.03,0.11-0.06,0.23-0.14c-0.6-0.28-0.3-0.84-0.45-1.32c-0.23,0.02-0.47,0.05-0.77,0.08
					c0.1-0.14,0.18-0.25,0.29-0.39c-0.08,0-0.15,0.02-0.17-0.01c-0.13-0.16-0.08-0.55-0.46-0.39c-0.23,0.1-0.46,0.22-0.64,0.39
					c-0.28,0.26-0.5,0.59-0.79,0.84c-0.59,0.51-0.62,1.32-1.05,1.91c-1.05,1.41-0.91,3.1-1.04,4.72c-0.01,0.08-0.02,0.18,0.02,0.24
					c0.08,0.13-0.12,0.43,0.26,0.41c0.12-0.01,0.26,0.18,0.42,0.3c-0.01,0.04-0.06,0.19-0.1,0.3c-0.14-0.08-0.27-0.16-0.45-0.26
					c-0.25,1.08-0.06,2.06,0.18,3.01c0.24,0.96,0.57,1.89,0.89,2.83c0.31,0.9,0.97,1.57,1.52,2.31c0.03-0.01,0.07-0.02,0.1-0.03
					c-0.09-0.52-0.18-1.05-0.28-1.61c0.11,0.01,0.18,0.02,0.19,0.02c0.02-0.31,0.05-0.62,0.06-0.93c0.02-0.37,0.16-0.83,0-1.11
					c-0.24-0.41,0.21-0.6,0.11-0.95c-0.09-0.35,0-0.74,0.02-1.12c0.02-0.36,0.06-0.72,0.17-1.14c0.08,0.12,0.23,0.24,0.23,0.36
					c0.04,0.74,0.06,1.49,0.08,2.24c0,0.16-0.02,0.33,0.01,0.49c0.02,0.11,0.09,0.25,0.17,0.29c0.06,0.03,0.2-0.08,0.29-0.14
					c0.09-0.07,0.17-0.15,0.3-0.2c-0.73,0.63-0.11,1.59-0.65,2.26c0.05,0.02,0.1,0.04,0.15,0.06c0.11-0.29,0.22-0.58,0.33-0.87
					c0.06,0.43,0.39,0.59,0.7,0.64c0.42,0.06,0.88,0.05,1.2-0.38c-0.37,0.57-0.73,1.14-1.1,1.71c0.04,0.03,0.08,0.06,0.12,0.09
					c0.07-0.05,0.14-0.09,0.22-0.14c-0.02,0.08-0.04,0.15-0.05,0.23c0.02,0.02,0.05,0.04,0.07,0.06c1.16-1.36,2.33-2.72,3.49-4.08
					c0.02,0.01,0.04,0.03,0.05,0.04c-0.29,0.39-0.57,0.79-0.88,1.17c-0.86,1.05-1.74,2.09-2.6,3.14c-0.09,0.1-0.12,0.25-0.18,0.38
					c-0.11,0.26-0.22,0.53-0.55,0.6c-0.01,0-0.01,0.07-0.03,0.26c0.63-0.49,1.17-0.9,1.79-1.39c-0.58,0.8-1.56,1.08-1.88,2.11
					c0.78-0.03,1.52-0.08,2.25-0.07c0.8,0,1.47-0.27,2.11-0.76c-0.07-0.1-0.12-0.19-0.2-0.31c0.19-0.15,0.38-0.29,0.54-0.41
					c-0.14-0.07-0.3-0.12-0.3-0.16c0.01-0.16,0.02-0.4,0.12-0.46c0.25-0.17,0.56-0.26,0.9-0.4c-0.05,0.15-0.08,0.22-0.1,0.28
					c0.02,0.02,0.04,0.03,0.06,0.05c0.16-0.19,0.32-0.37,0.5-0.57c-0.08-0.03-0.16-0.07-0.33-0.13c0.14-0.15,0.24-0.28,0.36-0.38
					c0.29-0.24,0.58-0.47,0.88-0.69c0.09-0.06,0.22-0.04,0.29-0.05c0.06-0.2,0.13-0.41,0.2-0.62c0.05,0.02,0.1,0.04,0.18,0.08
					c-0.03-0.11-0.05-0.18-0.04-0.16c0.23-0.18,0.41-0.37,0.62-0.47c0.26-0.12,0.56-0.15,0.89-0.24c-0.2-0.19-0.35-0.36-0.09-0.56
					c-0.1,0.04-0.2,0.08-0.42,0.16c0.07-0.27,0.11-0.44,0.18-0.7c-0.18-0.05-0.39-0.1-0.67-0.17c0-0.05-0.01-0.2-0.01-0.35
					c0.03,0,0.05-0.01,0.08-0.01c0.03,0.08,0.06,0.16,0.11,0.32c0.17-0.17,0.33-0.31,0.48-0.45c-0.02-0.02-0.04-0.05-0.07-0.07
					c-0.06,0.04-0.13,0.08-0.19,0.12c-0.02-0.02-0.04-0.04-0.06-0.06c0.12-0.12,0.24-0.24,0.42-0.41c-0.99,0.22-1.82,0.64-2.63,1.09
					c-0.21,0.12-0.46,0.18-0.61-0.1c0.31-0.19,0.59-0.38,0.89-0.55c0.21-0.12,0.44-0.21,0.64-0.34c0.3-0.19,0.58-0.4,0.83-0.67
					c-1.17,0.32-2.17,0.96-3.2,1.64c0.23-0.43,0.44-0.81,0.61-1.13c0.12-0.09,0.21-0.15,0.3-0.21l-0.01,0
					c-0.01,0.11-0.03,0.22-0.04,0.33c0.55-0.23,1.09-0.46,1.64-0.69c0.78-0.33,1.56-0.3,2.34,0.01c0.26,0.1,0.54,0.16,0.8,0.28
					c0.24,0.1,0.33,0.3,0.29,0.56c-0.06,0.36,0.1,0.62,0.43,0.79c0.41,0.21,0.72,0.46,0.69,1.03c-0.01,0.26,0.29,0.55,0.49,0.8
					c0.12,0.15,0.35,0.21,0.49,0.36c0.1,0.11,0.2,0.29,0.19,0.43c-0.06,0.55,0.16,1.06,0.64,1.34c0.15,0.09,0.3,0.17,0.46,0.26
					c0.44,0.26,0.47,0.42,0.15,0.83c-0.34,0.43-0.38,1.08-0.07,1.47c0.13,0.16,0.29,0.29,0.42,0.44c0.3,0.34,0.29,0.56-0.11,0.78
					c-0.69,0.38-0.99,0.97-1.03,1.72c-0.02,0.41-0.27,0.55-0.62,0.64c-0.69,0.18-1.37,0.39-2.06,0.57c-0.14,0.04-0.3,0.01-0.45,0.03
					c-0.36,0.05-0.71,0.12-1.07,0.16c-0.27,0.03-0.54,0.06-0.81,0.02c-1.26-0.2-2.51-0.43-3.77-0.64c-0.62-0.1-1.17-0.32-1.52-0.9
					c-0.1-0.16-0.29-0.27-0.46-0.43c-0.08,0.36,0.48,0.45,0.21,0.85c-0.26,0.39-0.54,0.12-0.85,0.12c0.76,0.32,1.2,0.91,1.51,1.61
					c0.18,0.4,0.3,0.82,0.45,1.22c0.41,1.11,0.84,2.21,1.22,3.32c0.12,0.33,0.11,0.71,0.16,1.07c0.01,0.08,0,0.16,0,0.24
					c0.04,1.01,0.08,2.02,0.11,3.03c0.02,0.62-0.05,0.68-0.63,0.83c-0.6,0.16-1.08,0.47-1.27,1.12c-0.18,0.6-0.4,0.66-0.91,0.31
					c-0.31-0.22-0.61-0.44-1.03-0.38c-0.32,0.05-0.59,0.13-0.8,0.41c-0.26,0.35-0.45,0.35-0.78,0.07c-0.38-0.33-0.68-0.76-1.23-0.81
					c-0.13-0.01-0.29-0.05-0.38,0.01c-0.42,0.29-0.69,0.07-1-0.19c-0.25-0.22-0.54-0.39-0.83-0.56c-0.08-0.05-0.23-0.06-0.31-0.02
					c-0.44,0.2-0.72-0.03-0.97-0.35c-0.28-0.34-0.59-0.55-1.06-0.33c-0.24,0.11-0.41-0.03-0.53-0.25c-0.54-0.93-0.86-1.91-0.76-2.99
					c0.14-1.5,0.55-2.9,1.47-4.12c0.01-0.02,0.04-0.03,0.11-0.09c-0.09,0.17-0.15,0.28-0.21,0.4c-0.51,0.99-0.74,2.07-1,3.14
					c-0.03,0.13,0.08,0.3,0.14,0.49c-0.04,0.01-0.15,0.03-0.28,0.06c0.06,0.32,0.62,0.21,0.55,0.65c-0.05,0.29-0.06,0.58-0.09,0.92
					c0.44-0.19,0.81-0.35,1.18-0.51c0.11,0.53,0.22,1.05,0.33,1.57c0.03,0,0.06,0.01,0.09,0.01c0.11-0.33,0.21-0.66,0.33-1.02
					c0.03,0.04,0.07,0.08,0.12,0.15c0.15-0.19,0.28-0.4,0.45-0.58c0.07-0.07,0.21-0.09,0.31-0.13c0.01,0.08,0.03,0.17,0.03,0.25
					c-0.01,0.42-0.04,0.85,0.02,1.29c0.03-0.13,0.07-0.25,0.09-0.31c0.16,0.26,0.35,0.55,0.52,0.85c0.04,0.07-0.04,0.21-0.01,0.29
					c0.05,0.11,0.15,0.21,0.24,0.29c0.02,0.02,0.11-0.05,0.16-0.08c-0.05-0.11-0.11-0.21-0.17-0.34c0.29-0.03,0.68-0.02,0.69-0.53
					c-0.17-0.17-0.79,0.21-0.58-0.49c0.08,0.09,0.15,0.16,0.23,0.25c0.16-0.12,0.31-0.22,0.54-0.39c-0.19,0.03-0.29,0.05-0.38,0.07
					c-0.02-0.03-0.03-0.05-0.05-0.08c0.09-0.08,0.18-0.16,0.26-0.24c0,0-0.03,0-0.03,0c0.07,0.04,0.18,0.06,0.21,0.11
					c0.16,0.41,0.48,0.31,0.79,0.26C22.84,37.41,22.63,37.28,22.54,37.15z M25.06,25.31c0.16,0.08,0.28,0.19,0.41,0.21
					c0.47,0.06,0.96,0.04,1.42,0.15c0.33,0.07,0.44-0.03,0.54-0.34c-1.07-0.85-2.23-0.26-3.38-0.26
					C24.29,25.5,24.68,25.59,25.06,25.31z M30.68,23.16c-0.51-0.02-1-0.05-1.51-0.07c0.01,0.42-0.21,0.53-0.56,0.56
					c-0.18,0.02-0.49,0.07-0.31,0.38C29.27,24.14,29.93,23.51,30.68,23.16z M22.62,39.74c0.01-0.04,0.02-0.07,0.03-0.11
					c-0.2-0.19-0.4-0.39-0.6-0.58c-0.08,0.23-0.17,0.48-0.26,0.74C22.04,39.77,22.33,39.75,22.62,39.74z M18.83,13.65
					c0.05,0.01,0.11,0.01,0.16,0.02c0.06-0.51,0.11-1.02,0.17-1.52c-0.04-0.01-0.08-0.01-0.12-0.02
					C19.03,12.65,18.56,13.09,18.83,13.65z M23.97,34.56c0.01-0.28,0.01-0.52,0.02-0.81C23.5,34.24,23.49,34.26,23.97,34.56z
					 M24.49,35.8c-0.03,0.04-0.07,0.07-0.1,0.11c0.14,0.25,0.17,0.62,0.75,0.5C24.87,36.16,24.68,35.98,24.49,35.8z M25.47,40.22
					c0.05-0.05,0.1-0.1,0.16-0.15c-0.25-0.24-0.51-0.49-0.76-0.73c-0.03,0.03-0.06,0.06-0.09,0.09C25,39.69,25.24,39.96,25.47,40.22
					z M36.8,24.49c-0.02,0.03-0.05,0.06-0.07,0.1c0.27,0.18,0.55,0.36,0.87,0.58C37.47,24.69,37.11,24.62,36.8,24.49z"/>
				<path d="M28.99,14.43c0.03-0.29,0.05-0.46,0.06-0.59c-0.31,0.09-0.61,0.21-0.92,0.25c-0.1,0.01-0.23-0.17-0.34-0.27
					c0.1-0.07,0.19-0.18,0.29-0.2c0.27-0.04,0.55-0.03,0.9-0.05c-0.21-0.19-0.37-0.34-0.53-0.48
					C29.43,13.67,29.43,13.67,28.99,14.43z"/>
				<path d="M22.95,31.32c-0.01,0.02-0.02,0.03-0.01,0.04c-0.07,0.11-0.13,0.21-0.21,0.34c0.02,0.01,0.07,0.05,0.14,0.1
					c-0.78,0.2-0.99,0.11-1.07-0.54C22.19,31.28,22.57,31.3,22.95,31.32z"/>
				<path d="M14.83,35.21c-0.12,0.16-0.24,0.32-0.3,0.41c-0.33-0.19-0.6-0.34-0.91-0.51c0.09-0.27,0.31-0.25,0.6-0.04
					c-0.01-0.13-0.01-0.22-0.02-0.34c0.23,0.18,0.44,0.33,0.65,0.49C14.85,35.21,14.83,35.21,14.83,35.21z"/>
				<path d="M12.68,35.35c0.21,0.08,0.34,0.13,0.52,0.19c-0.57,0.08-0.71-0.03-0.73-0.51c-0.01-0.13-0.07-0.27-0.06-0.4
					c0-0.07,0.09-0.17,0.15-0.18c0.07-0.02,0.23,0.03,0.23,0.07C12.86,34.8,13.07,35.09,12.68,35.35z"/>
				<path d="M21.58,37.19c0,0,0.03,0,0.03,0c-0.4-0.11-0.5-0.27-0.4-0.63c0.05-0.19,0.13-0.38,0.23-0.67
					C21.69,36.36,21.73,36.76,21.58,37.19z"/>
				<path d="M14.83,35.21c0,0,0.03,0,0.03,0c-0.02-0.09-0.08-0.22-0.05-0.26c0.27-0.33,0.51-0.71,0.94-0.87
					c0.03,0.03,0.06,0.06,0.09,0.09C15.5,34.52,15.16,34.86,14.83,35.21z"/>
				<path d="M29.19,16.88c0.17-0.39,0.37-0.77,0.51-1.17c0.04-0.12-0.03-0.28-0.13-0.43c0.09-0.12,0.18-0.25,0.3-0.4
					C30.08,15.71,29.72,16.32,29.19,16.88C29.18,16.88,29.19,16.88,29.19,16.88z"/>
				<path d="M21.61,34.13c0.28,0.5,0.1,0.79-0.25,1.04C21.43,34.86,21.51,34.54,21.61,34.13z"/>
				<path d="M22.85,8.42c0.13,0.18,0.19,0.28,0.28,0.4c-0.14,0.11-0.28,0.22-0.45,0.35C22.35,8.81,22.82,8.71,22.85,8.42z"/>
				<path d="M22.54,37.15c0.09,0.13,0.29,0.26,0.03,0.42c-0.17-0.06-0.35-0.12-0.52-0.18c0-0.06,0.01-0.12,0.01-0.18
					C22.23,37.19,22.38,37.17,22.54,37.15z"/>
				<path d="M21.13,31.33c-0.14-0.24-0.25-0.42-0.36-0.59c0.03-0.03,0.06-0.07,0.09-0.1c0.17,0.13,0.35,0.26,0.55,0.41
					C21.36,31.11,21.27,31.19,21.13,31.33z"/>
				<path d="M27.38,15.67c0.3-0.4,0.6-0.81,0.9-1.21c0.02,0.01,0.04,0.03,0.06,0.04c-0.3,0.4-0.6,0.81-0.9,1.21
					C27.42,15.7,27.4,15.68,27.38,15.67z"/>
				<path d="M28.81,15.47c0.2,0.05,0.36,0.09,0.52,0.13c-0.05,0.08-0.11,0.23-0.14,0.22C29.04,15.79,28.76,15.93,28.81,15.47z"/>
				<path d="M21.2,37.32c-0.2,0.12-0.33,0.2-0.46,0.28c-0.03-0.02-0.05-0.03-0.08-0.05c0.07-0.14,0.14-0.27,0.21-0.41
					C20.98,37.2,21.07,37.25,21.2,37.32z"/>
				<path class="st2" d="M25.06,25.31c-0.38,0.27-0.77,0.19-1-0.24c1.14,0.01,2.31-0.59,3.38,0.26c-0.1,0.3-0.21,0.41-0.54,0.34
					c-0.46-0.1-0.95-0.09-1.42-0.15C25.34,25.5,25.22,25.39,25.06,25.31z"/>
				<path class="st2" d="M30.68,23.16c-0.75,0.35-1.41,0.98-2.38,0.87c-0.18-0.32,0.13-0.37,0.31-0.38
					c0.35-0.03,0.58-0.13,0.56-0.56C29.69,23.11,30.17,23.13,30.68,23.16z"/>
				<path class="st2" d="M22.62,39.74c-0.29,0.01-0.58,0.03-0.83,0.04c0.09-0.26,0.18-0.51,0.26-0.74c0.2,0.2,0.4,0.39,0.6,0.58
					C22.64,39.66,22.63,39.7,22.62,39.74z"/>
				<path class="st2" d="M18.83,13.65c-0.27-0.56,0.2-1.01,0.2-1.53c0.04,0.01,0.08,0.01,0.12,0.02c-0.06,0.51-0.11,1.02-0.17,1.52
					C18.94,13.66,18.88,13.66,18.83,13.65z"/>
				<path class="st2" d="M23.97,34.56c-0.48-0.3-0.48-0.32,0.02-0.81C23.99,34.04,23.98,34.28,23.97,34.56z"/>
				<path class="st2" d="M24.49,35.8c0.19,0.18,0.39,0.36,0.65,0.61c-0.58,0.12-0.61-0.26-0.75-0.5
					C24.42,35.87,24.45,35.83,24.49,35.8z"/>
				<path class="st2" d="M25.47,40.22c-0.23-0.26-0.46-0.53-0.7-0.79c0.03-0.03,0.06-0.06,0.09-0.09c0.25,0.24,0.51,0.49,0.76,0.73
					C25.57,40.12,25.52,40.17,25.47,40.22z"/>
				<path class="st2" d="M36.8,24.49c0.31,0.14,0.67,0.2,0.8,0.67c-0.32-0.22-0.6-0.4-0.87-0.58C36.75,24.55,36.78,24.52,36.8,24.49
					z"/>
			</g>
		</g>
		<g id="_x39_YD7U7_3_">
			<g>
				<path class="st11" d="M14.99,35.21c0.34-0.35,0.67-0.69,1.01-1.04c-0.03-0.03-0.06-0.06-0.09-0.09
					c-0.43,0.16-0.67,0.54-0.94,0.87C14.93,35,15,35.12,15.02,35.21c-0.21-0.16-0.42-0.31-0.65-0.49c0.01,0.12,0.01,0.2,0.02,0.34
					c-0.29-0.21-0.51-0.22-0.6,0.04c0.31,0.17,0.57,0.33,0.91,0.51C14.75,35.53,14.87,35.37,14.99,35.21z M29.36,16.88
					c-0.09,0.06-0.18,0.13-0.3,0.21c-0.18,0.32-0.38,0.7-0.61,1.13c1.04-0.68,2.03-1.32,3.2-1.64c-0.25,0.27-0.53,0.48-0.83,0.67
					c-0.2,0.13-0.43,0.21-0.64,0.34c-0.3,0.17-0.58,0.36-0.89,0.55c0.16,0.27,0.4,0.22,0.61,0.1c0.81-0.46,1.64-0.87,2.63-1.09
					c-0.18,0.17-0.3,0.29-0.42,0.41c0.02,0.02,0.04,0.04,0.06,0.06c0.06-0.04,0.13-0.08,0.19-0.12c0.02,0.02,0.04,0.05,0.07,0.07
					c-0.15,0.14-0.3,0.29-0.48,0.45c-0.06-0.16-0.09-0.24-0.11-0.32c-0.03,0-0.05,0.01-0.08,0.01c0,0.15,0.01,0.3,0.01,0.35
					c0.27,0.07,0.48,0.12,0.67,0.17c-0.06,0.25-0.11,0.43-0.18,0.7c0.22-0.08,0.32-0.12,0.42-0.16c-0.26,0.2-0.11,0.37,0.09,0.56
					c-0.33,0.08-0.63,0.12-0.89,0.24c-0.22,0.1-0.39,0.29-0.62,0.47c-0.01-0.02,0.01,0.05,0.04,0.16c-0.08-0.03-0.14-0.06-0.18-0.08
					c-0.07,0.21-0.13,0.42-0.2,0.62c-0.06,0.01-0.2-0.01-0.29,0.05c-0.3,0.21-0.59,0.45-0.88,0.69c-0.12,0.1-0.22,0.23-0.36,0.38
					c0.17,0.07,0.25,0.1,0.33,0.13c-0.18,0.2-0.34,0.39-0.5,0.57c-0.02-0.02-0.04-0.03-0.06-0.05c0.02-0.07,0.05-0.14,0.1-0.28
					c-0.34,0.15-0.65,0.24-0.9,0.4c-0.1,0.07-0.11,0.3-0.12,0.46c0,0.04,0.16,0.09,0.3,0.16c-0.16,0.12-0.35,0.27-0.54,0.41
					c0.08,0.12,0.13,0.21,0.2,0.31c-0.64,0.49-1.31,0.76-2.11,0.76c-0.74,0-1.47,0.05-2.25,0.07c0.33-1.04,1.31-1.31,1.88-2.11
					c-0.63,0.49-1.17,0.9-1.79,1.39c0.02-0.19,0.02-0.26,0.03-0.26c0.33-0.07,0.43-0.34,0.55-0.6c0.05-0.13,0.09-0.28,0.18-0.38
					c0.86-1.05,1.74-2.09,2.6-3.14c0.31-0.38,0.59-0.78,0.88-1.17c-0.02-0.01-0.04-0.03-0.05-0.04c-1.16,1.36-2.33,2.72-3.49,4.08
					c-0.02-0.02-0.05-0.04-0.07-0.06c0.02-0.07,0.03-0.15,0.05-0.23c-0.08,0.05-0.15,0.09-0.22,0.14c-0.04-0.03-0.08-0.06-0.12-0.09
					c0.37-0.57,0.73-1.14,1.1-1.71c-0.32,0.43-0.78,0.44-1.2,0.38c-0.31-0.04-0.64-0.21-0.7-0.64c-0.11,0.29-0.22,0.58-0.33,0.87
					c-0.05-0.02-0.1-0.04-0.15-0.06c0.54-0.67-0.08-1.63,0.65-2.26c-0.13,0.05-0.21,0.14-0.3,0.2c-0.09,0.06-0.23,0.17-0.29,0.14
					c-0.09-0.04-0.15-0.18-0.17-0.29c-0.03-0.16-0.01-0.32-0.01-0.49c-0.02-0.75-0.04-1.49-0.08-2.24
					c-0.01-0.12-0.15-0.24-0.23-0.36c-0.11,0.41-0.15,0.78-0.17,1.14c-0.02,0.37-0.11,0.77-0.02,1.12c0.09,0.35-0.35,0.54-0.11,0.95
					c0.16,0.27,0.02,0.73,0,1.11c-0.01,0.31-0.04,0.62-0.06,0.93c-0.01,0-0.08-0.01-0.19-0.02c0.1,0.56,0.19,1.08,0.28,1.61
					c-0.03,0.01-0.07,0.02-0.1,0.03c-0.55-0.74-1.21-1.41-1.52-2.31c-0.32-0.94-0.65-1.87-0.89-2.83c-0.24-0.95-0.43-1.93-0.18-3.01
					c0.18,0.11,0.31,0.18,0.45,0.26c0.04-0.11,0.09-0.26,0.1-0.3c-0.16-0.12-0.3-0.31-0.42-0.3c-0.38,0.02-0.18-0.27-0.26-0.41
					c-0.04-0.06-0.03-0.16-0.02-0.24c0.13-1.62-0.01-3.3,1.04-4.72c0.44-0.59,0.47-1.39,1.05-1.91c0.29-0.25,0.5-0.58,0.79-0.84
					c0.18-0.17,0.41-0.29,0.64-0.39c0.38-0.16,0.33,0.23,0.46,0.39c0.02,0.02,0.09,0.01,0.17,0.01c-0.11,0.14-0.19,0.25-0.29,0.39
					c0.29-0.03,0.53-0.05,0.77-0.08c0.15,0.47-0.15,1.04,0.45,1.32c-0.12,0.07-0.18,0.11-0.23,0.14c0.16,0.17,0.36,0.3,0.42,0.48
					c0.08,0.24,0.04,0.52,0.07,0.78c0.02,0.13,0.06,0.27,0.15,0.36c0.12,0.13,0.28,0.22,0.43,0.33c-0.28,0.15-0.53,0.29-0.79,0.43
					c0.02,0.03,0.03,0.06,0.05,0.1c0.27-0.07,0.55-0.11,0.81-0.21c0.31-0.13,0.47,0.02,0.56,0.26c0.13,0.36,0.2,0.73,0.31,1.12
					c0.09,0.01,0.25,0.03,0.41,0.05c0,0.03,0,0.06,0,0.09c-0.31,0.08-0.62,0.16-0.93,0.24c0.12,0.08,0.22,0.08,0.32,0.07
					c0.32-0.05,0.64-0.13,0.96-0.16c0.39-0.04,0.71,0.03,0.86,0.48c0.07,0.21,0.27,0.37,0.42,0.55c-0.4-1.08-0.4-1.08-1.46-1.54
					c-0.3-0.13-0.49-0.34-0.52-0.67c-0.04-0.42-0.22-0.73-0.57-0.98c-0.36-0.26-0.58-0.6-0.59-1.1c0-0.37-0.15-0.73-0.23-1.1
					c-0.05-0.21-0.09-0.42-0.13-0.63c-0.09-0.61-0.1-1.25-0.27-1.83c-0.28-0.94-0.82-1.3-1.77-0.69c-0.09,0.06-0.18,0.12-0.26,0.19
					c-1.93,1.55-2.98,3.63-3.59,5.96c-0.36,1.36-0.23,2.75-0.14,4.13c0.17,2.73,1.13,5.24,2.18,7.73c0.26,0.62,0.59,1.2,0.87,1.75
					c-0.3,0-0.64,0.01-1.04,0.01c0.07,0.33,0.13,0.66,0.18,0.91c-0.89-0.08-1.86-0.18-2.84-0.27c-2.62-0.23-5.23-0.24-7.83,0.31
					c-3.19,0.68-5.63,2.36-7.21,5.22c-0.27,0.48-0.4,1.06-0.47,1.62c-0.06,0.49,0.26,0.81,0.75,0.91c0.7,0.14,1.4,0.14,2.08-0.14
					c0.15-0.06,0.34-0.05,0.51-0.05c0.34,0,0.68,0.07,1.01,0c0.57-0.11,1.02,0.07,1.48,0.39c0.23,0.16,0.54,0.28,0.81,0.28
					c0.47,0,0.81,0.15,1.06,0.55c0.08,0.13,0.16,0.25,0.26,0.37c0.26,0.31,0.68,0.43,1.01,0.24c-0.13,0-0.21,0.03-0.27-0.01
					c-0.23-0.12-0.54-0.17-0.54-0.54c0-0.51-0.02-1.02-0.03-1.54c-0.03-0.01-0.06-0.01-0.1-0.02c-0.08,0.33-0.16,0.66-0.25,1.04
					c-0.05,0-0.2,0.03-0.24-0.02c-0.22-0.28-0.53-0.32-0.86-0.36C8.88,33,8.58,32.83,8.55,32.36c-0.01-0.21-0.05-0.42-0.07-0.63
					c-0.04,0-0.09,0-0.13,0c-0.02,0.24-0.04,0.48-0.06,0.74c-0.54-0.62-1.16-0.07-1.74-0.21c-0.04-0.09-0.1-0.19-0.13-0.26
					c-0.19,0.1-0.37,0.2-0.57,0.31c-0.04-0.43-0.21-0.38-0.42-0.18c-0.2,0.19-0.42,0.27-0.58-0.02c-0.13-0.22-0.19-0.48-0.27-0.71
					c-0.03,0.06-0.09,0.17-0.15,0.28c-0.08-0.07-0.13-0.17-0.21-0.19c-0.24-0.06-0.28-0.13-0.18-0.37c0.01-0.04,0.02-0.09,0-0.12
					c-0.13-0.27,0.02-0.96,0.23-1.19c0.26-0.28,0.52-0.57,0.75-0.87c0.11-0.14,0.15-0.33,0.24-0.52c0.32,0.18,0.63,0.36,0.69-0.19
					c0-0.04,0.11-0.06,0.17-0.09c0.15-0.1,0.3-0.2,0.46-0.3c-0.01-0.02-0.02-0.04-0.03-0.06c-0.1,0.04-0.21,0.09-0.31,0.13
					c0.26-0.29,0.53-0.59,0.86-0.77c1.14-0.62,2.36-1.02,3.61-1.37c0.38-0.11,0.81,0.09,1.15-0.19c0.03-0.03,0.07-0.04,0.14-0.09
					c-0.04,0.11-0.06,0.18-0.1,0.29c0.12-0.04,0.28-0.03,0.32-0.1c0.18-0.31,0.48-0.4,0.79-0.4c1.62-0.02,3.24-0.07,4.85,0.02
					c0.87,0.05,1.72,0.36,2.69,0.58c-2.11,1.07-4.19,1.78-6.34,2.34c2.34-0.37,4.48-1.31,6.67-2.16c-0.29,0.41-0.59,0.78-0.92,1.12
					c-0.69,0.71-0.69,0.7-0.79,1.17c0.11-0.13,0.21-0.24,0.35-0.4c-0.07,0.15-0.12,0.25-0.17,0.35c0.02,0.01,0.03,0.02,0.05,0.03
					c0.36-0.4,0.72-0.81,1.1-1.23c0.04,0.28,0.07,0.52,0.11,0.8c0.13-0.18,0.2-0.32,0.31-0.41c0.21-0.18,0.43-0.36,0.68-0.48
					c0.21-0.09,0.46-0.09,0.79-0.14c0,0.1-0.03,0.27,0,0.42c0.04,0.16,0.14,0.32,0.23,0.46c0.07,0.11,0.21,0.2,0.24,0.32
					c0.12,0.46,0.16,0.94,0.31,1.39c0.12,0.36,0,0.53-0.34,0.68c-0.03-0.17-0.05-0.31-0.08-0.46c-0.04,0-0.08,0-0.12,0
					c0,0.1-0.03,0.21-0.01,0.31c0.03,0.15,0.15,0.32,0.11,0.45c-0.13,0.42,0.12,0.63,0.38,0.85c-0.38-0.02-0.76-0.04-1.15-0.06
					c0.08,0.65,0.29,0.75,1.07,0.54c-0.07-0.05-0.12-0.09-0.14-0.1c0.08-0.13,0.14-0.23,0.21-0.34c0.3,0.68,0.18,1.56,1.03,2.07
					c-0.21,0.08-0.34,0.13-0.43,0.16c-0.05,0.12-0.08,0.22-0.12,0.32c-0.16,0.35-0.05,0.75,0.27,1.02c0.12,0.11,0.23,0.24,0.34,0.36
					c-0.03,0.03-0.06,0.06-0.09,0.09c-0.09-0.08-0.19-0.17-0.37-0.33c0.21,0.5-0.21,0.45-0.42,0.64c0.14,0.11,0.26,0.19,0.41,0.31
					c-0.19,0.06-0.33,0.1-0.49,0.14c0.08,0.16,0.16,0.31,0.24,0.46c-0.05,0-0.14,0.01-0.23,0.02c0.23,0.3,0.21,0.36-0.09,0.53
					c-0.15-0.09-0.29-0.17-0.42-0.24c0,0.08,0,0.16-0.01,0.24c-0.16,0.02-0.31,0.04-0.47,0.06c0,0.06-0.01,0.12-0.01,0.18
					c0.17,0.06,0.35,0.12,0.52,0.18c-0.31,0.05-0.63,0.15-0.79-0.26c-0.02-0.06-0.13-0.08-0.21-0.11c0.15-0.43,0.11-0.83-0.14-1.3
					c-0.1,0.29-0.17,0.47-0.23,0.67c-0.1,0.37,0,0.52,0.4,0.63c-0.09,0.08-0.18,0.16-0.26,0.24c0.02,0.03,0.03,0.05,0.05,0.08
					c0.09-0.02,0.19-0.03,0.38-0.07c-0.23,0.17-0.38,0.28-0.54,0.39c-0.08-0.09-0.15-0.16-0.23-0.25c-0.2,0.69,0.42,0.32,0.58,0.49
					c-0.01,0.51-0.4,0.5-0.69,0.53c0.06,0.13,0.12,0.23,0.17,0.34c-0.06,0.03-0.15,0.09-0.16,0.08c-0.09-0.09-0.19-0.18-0.24-0.29
					c-0.03-0.08,0.05-0.22,0.01-0.29c-0.17-0.3-0.36-0.59-0.52-0.85c-0.02,0.06-0.05,0.18-0.09,0.31c-0.06-0.44-0.04-0.86-0.02-1.29
					c0-0.08-0.02-0.17-0.03-0.25c-0.11,0.04-0.24,0.05-0.31,0.13c-0.17,0.18-0.3,0.39-0.45,0.58c-0.05-0.06-0.09-0.11-0.12-0.15
					c-0.11,0.36-0.22,0.69-0.33,1.02c-0.03,0-0.06-0.01-0.09-0.01c-0.11-0.52-0.22-1.04-0.33-1.57c-0.37,0.16-0.75,0.32-1.18,0.51
					c0.03-0.34,0.04-0.63,0.09-0.92c0.07-0.44-0.49-0.33-0.55-0.65c0.12-0.03,0.24-0.05,0.28-0.06c-0.06-0.19-0.17-0.36-0.14-0.49
					c0.26-1.07,0.49-2.15,1-3.14c0.06-0.11,0.12-0.22,0.21-0.4c-0.07,0.06-0.09,0.07-0.11,0.09c-0.92,1.22-1.33,2.62-1.47,4.12
					c-0.1,1.08,0.22,2.06,0.76,2.99c0.12,0.21,0.29,0.36,0.53,0.25c0.47-0.22,0.78-0.02,1.06,0.33c0.26,0.32,0.53,0.54,0.97,0.35
					c0.09-0.04,0.23-0.03,0.31,0.02c0.29,0.17,0.58,0.34,0.83,0.56c0.31,0.27,0.58,0.49,1,0.19c0.09-0.06,0.25-0.03,0.38-0.01
					c0.55,0.06,0.85,0.49,1.23,0.81c0.33,0.28,0.52,0.28,0.78-0.07c0.21-0.28,0.47-0.36,0.8-0.41c0.43-0.06,0.72,0.16,1.03,0.38
					c0.51,0.36,0.73,0.3,0.91-0.31c0.2-0.65,0.67-0.96,1.27-1.12c0.58-0.15,0.65-0.22,0.63-0.83c-0.03-1.01-0.08-2.02-0.11-3.03
					c0-0.08,0.01-0.16,0-0.24c-0.05-0.36-0.04-0.73-0.16-1.07c-0.38-1.12-0.81-2.22-1.22-3.32c-0.15-0.41-0.28-0.83-0.45-1.22
					c-0.31-0.7-0.75-1.29-1.51-1.61c0.31,0,0.59,0.27,0.85-0.12c0.27-0.4-0.29-0.49-0.21-0.85c0.17,0.16,0.36,0.27,0.46,0.43
					c0.35,0.57,0.9,0.79,1.52,0.9c1.26,0.21,2.51,0.44,3.77,0.64c0.26,0.04,0.54,0.01,0.81-0.02c0.36-0.04,0.71-0.11,1.07-0.16
					c0.15-0.02,0.3,0.01,0.45-0.03c0.69-0.18,1.37-0.39,2.06-0.57c0.34-0.09,0.6-0.23,0.62-0.64c0.04-0.75,0.35-1.34,1.03-1.72
					c0.4-0.22,0.41-0.43,0.11-0.78c-0.13-0.15-0.29-0.28-0.42-0.44c-0.31-0.39-0.27-1.04,0.07-1.47c0.32-0.41,0.29-0.58-0.15-0.83
					c-0.15-0.09-0.3-0.17-0.46-0.26c-0.48-0.27-0.71-0.78-0.64-1.34c0.02-0.14-0.08-0.32-0.19-0.43c-0.14-0.14-0.36-0.21-0.49-0.36
					c-0.2-0.24-0.5-0.54-0.49-0.8c0.02-0.57-0.29-0.81-0.69-1.03c-0.33-0.17-0.48-0.43-0.43-0.79c0.04-0.27-0.05-0.46-0.29-0.56
					c-0.26-0.11-0.54-0.17-0.8-0.28c-0.78-0.3-1.56-0.33-2.34-0.01c-0.55,0.23-1.1,0.46-1.64,0.69
					C29.32,17.1,29.33,16.99,29.36,16.88c0.53-0.55,0.88-1.17,0.68-2c-0.12,0.16-0.21,0.28-0.3,0.4c0.11,0.14,0.18,0.31,0.13,0.43
					C29.72,16.11,29.53,16.49,29.36,16.88z M29.15,14.43c0.44-0.76,0.44-0.76-0.54-1.33c0.16,0.14,0.32,0.29,0.53,0.48
					c-0.35,0.01-0.62,0.01-0.9,0.05c-0.1,0.01-0.19,0.13-0.29,0.2c0.11,0.1,0.24,0.28,0.34,0.27c0.31-0.04,0.6-0.16,0.92-0.25
					C29.2,13.97,29.18,14.14,29.15,14.43z M12.84,35.35c0.39-0.26,0.18-0.55,0.12-0.83c-0.01-0.04-0.16-0.09-0.23-0.07
					c-0.07,0.02-0.15,0.12-0.15,0.18c-0.01,0.13,0.06,0.26,0.06,0.4c0.02,0.48,0.16,0.59,0.73,0.51
					C13.19,35.48,13.05,35.43,12.84,35.35z M21.77,34.13c-0.1,0.41-0.18,0.73-0.25,1.04C21.87,34.92,22.05,34.63,21.77,34.13z
					 M23.01,8.42c-0.03,0.29-0.5,0.39-0.18,0.75c0.17-0.13,0.31-0.24,0.45-0.35C23.2,8.69,23.14,8.6,23.01,8.42z M21.29,31.33
					c0.14-0.13,0.23-0.22,0.29-0.28c-0.2-0.15-0.38-0.28-0.55-0.41c-0.03,0.03-0.06,0.07-0.09,0.1
					C21.04,30.91,21.15,31.09,21.29,31.33z M27.55,15.67c0.02,0.01,0.04,0.03,0.06,0.04c0.3-0.4,0.6-0.81,0.9-1.21
					c-0.02-0.01-0.04-0.03-0.06-0.04C28.15,14.86,27.85,15.26,27.55,15.67z M28.98,15.47c-0.05,0.47,0.23,0.33,0.38,0.36
					c0.03,0.01,0.09-0.14,0.14-0.22C29.34,15.56,29.18,15.52,28.98,15.47z M21.37,37.32c-0.13-0.07-0.23-0.13-0.32-0.18
					c-0.07,0.14-0.14,0.27-0.21,0.41c0.03,0.02,0.05,0.03,0.08,0.05C21.04,37.52,21.17,37.44,21.37,37.32z"/>
				<path class="st11" d="M22.7,37.15c0-0.08,0-0.16,0.01-0.24c0.13,0.08,0.27,0.16,0.42,0.24c0.3-0.18,0.32-0.24,0.09-0.53
					c0.1-0.01,0.19-0.01,0.23-0.02c-0.08-0.15-0.15-0.3-0.24-0.46c0.15-0.05,0.3-0.09,0.49-0.14c-0.16-0.12-0.27-0.2-0.41-0.31
					c0.21-0.18,0.63-0.14,0.42-0.64c0.18,0.16,0.28,0.24,0.37,0.33c0.03-0.03,0.06-0.06,0.09-0.09c-0.11-0.12-0.21-0.25-0.34-0.36
					c-0.32-0.27-0.43-0.67-0.27-1.02c0.04-0.1,0.08-0.2,0.12-0.32c0.09-0.03,0.23-0.09,0.43-0.16c-0.85-0.51-0.73-1.38-1.03-2.07
					c0-0.01,0-0.02,0.01-0.04c-0.26-0.22-0.52-0.43-0.38-0.85c0.04-0.13-0.08-0.3-0.11-0.45c-0.02-0.1,0-0.2,0.01-0.31
					c0.04,0,0.08,0,0.12,0c0.02,0.14,0.05,0.28,0.08,0.46c0.33-0.15,0.45-0.32,0.34-0.68c-0.14-0.45-0.19-0.93-0.31-1.39
					c-0.03-0.12-0.17-0.21-0.24-0.32c-0.09-0.15-0.19-0.3-0.23-0.46c-0.04-0.15,0-0.32,0-0.42c-0.33,0.06-0.58,0.05-0.79,0.14
					c-0.25,0.11-0.47,0.3-0.68,0.48c-0.11,0.09-0.18,0.23-0.31,0.41c-0.04-0.29-0.07-0.52-0.11-0.8c-0.38,0.42-0.74,0.83-1.1,1.23
					c-0.02-0.01-0.03-0.02-0.05-0.03c0.05-0.1,0.1-0.2,0.17-0.35c-0.14,0.15-0.24,0.27-0.35,0.4c0.09-0.47,0.1-0.46,0.79-1.17
					c0.33-0.34,0.63-0.72,0.92-1.12c-2.18,0.84-4.33,1.79-6.67,2.16c2.15-0.56,4.23-1.27,6.34-2.34c-0.97-0.22-1.82-0.53-2.69-0.58
					c-1.61-0.09-3.23-0.03-4.85-0.02c-0.3,0-0.61,0.08-0.79,0.4c-0.04,0.07-0.19,0.06-0.32,0.1c0.04-0.11,0.06-0.17,0.1-0.29
					c-0.07,0.04-0.11,0.06-0.14,0.09c-0.35,0.28-0.77,0.09-1.15,0.19c-1.25,0.34-2.47,0.75-3.61,1.37c-0.33,0.18-0.6,0.48-0.86,0.77
					c0.1-0.04,0.21-0.09,0.31-0.13c0.01,0.02,0.02,0.04,0.03,0.06c-0.15,0.1-0.3,0.2-0.46,0.3c-0.06,0.04-0.17,0.05-0.17,0.09
					c-0.06,0.55-0.37,0.37-0.69,0.19c-0.09,0.19-0.13,0.38-0.24,0.52c-0.23,0.3-0.49,0.59-0.75,0.87c-0.21,0.23-0.36,0.92-0.23,1.19
					c0.02,0.03,0.01,0.09,0,0.12c-0.09,0.24-0.05,0.31,0.18,0.37c0.07,0.02,0.13,0.11,0.21,0.19c0.06-0.11,0.12-0.22,0.15-0.28
					c0.08,0.23,0.14,0.49,0.27,0.71c0.16,0.28,0.38,0.21,0.58,0.02c0.2-0.19,0.37-0.25,0.42,0.18c0.2-0.11,0.38-0.21,0.57-0.31
					c0.03,0.07,0.09,0.17,0.13,0.26c0.58,0.14,1.2-0.41,1.74,0.21c0.02-0.26,0.04-0.5,0.06-0.74c0.04,0,0.09,0,0.13,0
					c0.02,0.21,0.06,0.42,0.07,0.63c0.03,0.46,0.33,0.64,0.74,0.68c0.33,0.03,0.63,0.07,0.86,0.36c0.04,0.05,0.19,0.02,0.24,0.02
					c0.09-0.38,0.17-0.71,0.25-1.04c0.03,0.01,0.06,0.01,0.1,0.02c0.01,0.51,0.03,1.02,0.03,1.54c0,0.37,0.31,0.42,0.54,0.54
					c0.06,0.03,0.15,0,0.27,0.01c-0.33,0.19-0.75,0.07-1.01-0.24c-0.1-0.11-0.18-0.24-0.26-0.37c-0.25-0.39-0.59-0.54-1.06-0.55
					c-0.27,0-0.58-0.12-0.81-0.28c-0.46-0.32-0.91-0.5-1.48-0.39c-0.32,0.06-0.67-0.01-1.01,0c-0.17,0-0.36-0.01-0.51,0.05
					c-0.68,0.28-1.38,0.28-2.08,0.14c-0.48-0.09-0.81-0.42-0.75-0.91c0.07-0.55,0.2-1.13,0.47-1.62c1.58-2.86,4.02-4.54,7.21-5.22
					c2.6-0.55,5.2-0.54,7.83-0.31c0.97,0.08,1.94,0.18,2.84,0.27c-0.05-0.25-0.12-0.58-0.18-0.91c0.41,0,0.74-0.01,1.04-0.01
					c-0.28-0.55-0.61-1.14-0.87-1.75c-1.05-2.48-2-5-2.18-7.73c-0.09-1.38-0.22-2.78,0.14-4.13c0.61-2.33,1.67-4.41,3.59-5.96
					c0.08-0.07,0.17-0.13,0.26-0.19c0.95-0.61,1.5-0.24,1.77,0.69c0.17,0.59,0.18,1.22,0.27,1.83c0.03,0.21,0.08,0.42,0.13,0.63
					c0.08,0.37,0.23,0.73,0.23,1.1c0.01,0.49,0.23,0.84,0.59,1.1c0.35,0.25,0.53,0.56,0.57,0.98c0.03,0.33,0.22,0.54,0.52,0.67
					c1.06,0.46,1.06,0.46,1.46,1.54c-0.14-0.18-0.35-0.34-0.42-0.55c-0.15-0.45-0.47-0.52-0.86-0.48c-0.32,0.03-0.64,0.11-0.96,0.16
					c-0.1,0.02-0.2,0.02-0.32-0.07c0.31-0.08,0.62-0.16,0.93-0.24c0-0.03,0-0.06,0-0.09c-0.16-0.02-0.32-0.04-0.41-0.05
					c-0.1-0.39-0.18-0.76-0.31-1.12c-0.09-0.24-0.25-0.39-0.56-0.26c-0.25,0.11-0.54,0.14-0.81,0.21c-0.02-0.03-0.03-0.06-0.05-0.1
					c0.26-0.14,0.51-0.28,0.79-0.43c-0.15-0.11-0.31-0.2-0.43-0.33c-0.08-0.09-0.13-0.23-0.15-0.36c-0.04-0.26,0.01-0.54-0.07-0.78
					c-0.06-0.18-0.26-0.31-0.42-0.48c0.04-0.03,0.11-0.06,0.23-0.14c-0.6-0.28-0.3-0.84-0.45-1.32c-0.23,0.02-0.47,0.05-0.77,0.08
					c0.1-0.14,0.18-0.25,0.29-0.39c-0.08,0-0.15,0.02-0.17-0.01c-0.13-0.16-0.08-0.55-0.46-0.39c-0.23,0.1-0.46,0.22-0.64,0.39
					c-0.28,0.26-0.5,0.59-0.79,0.84c-0.59,0.51-0.62,1.32-1.05,1.91c-1.05,1.41-0.91,3.1-1.04,4.72c-0.01,0.08-0.02,0.18,0.02,0.24
					c0.08,0.13-0.12,0.43,0.26,0.41c0.12-0.01,0.26,0.18,0.42,0.3c-0.01,0.04-0.06,0.19-0.1,0.3c-0.14-0.08-0.27-0.16-0.45-0.26
					c-0.25,1.08-0.06,2.06,0.18,3.01c0.24,0.96,0.57,1.89,0.89,2.83c0.31,0.9,0.97,1.57,1.52,2.31c0.03-0.01,0.07-0.02,0.1-0.03
					c-0.09-0.52-0.18-1.05-0.28-1.61c0.11,0.01,0.18,0.02,0.19,0.02c0.02-0.31,0.05-0.62,0.06-0.93c0.02-0.37,0.16-0.83,0-1.11
					c-0.24-0.41,0.21-0.6,0.11-0.95c-0.09-0.35,0-0.74,0.02-1.12c0.02-0.36,0.06-0.72,0.17-1.14c0.08,0.12,0.23,0.24,0.23,0.36
					c0.04,0.74,0.06,1.49,0.08,2.24c0,0.16-0.02,0.33,0.01,0.49c0.02,0.11,0.09,0.25,0.17,0.29c0.06,0.03,0.2-0.08,0.29-0.14
					c0.09-0.07,0.17-0.15,0.3-0.2c-0.73,0.63-0.11,1.59-0.65,2.26c0.05,0.02,0.1,0.04,0.15,0.06c0.11-0.29,0.22-0.58,0.33-0.87
					c0.06,0.43,0.39,0.59,0.7,0.64c0.42,0.06,0.88,0.05,1.2-0.38c-0.37,0.57-0.73,1.14-1.1,1.71c0.04,0.03,0.08,0.06,0.12,0.09
					c0.07-0.05,0.14-0.09,0.22-0.14c-0.02,0.08-0.04,0.15-0.05,0.23c0.02,0.02,0.05,0.04,0.07,0.06c1.16-1.36,2.33-2.72,3.49-4.08
					c0.02,0.01,0.04,0.03,0.05,0.04c-0.29,0.39-0.57,0.79-0.88,1.17c-0.86,1.05-1.74,2.09-2.6,3.14c-0.09,0.1-0.12,0.25-0.18,0.38
					c-0.11,0.26-0.22,0.53-0.55,0.6c-0.01,0-0.01,0.07-0.03,0.26c0.63-0.49,1.17-0.9,1.79-1.39c-0.58,0.8-1.56,1.08-1.88,2.11
					c0.78-0.03,1.52-0.08,2.25-0.07c0.8,0,1.47-0.27,2.11-0.76c-0.07-0.1-0.12-0.19-0.2-0.31c0.19-0.15,0.38-0.29,0.54-0.41
					c-0.14-0.07-0.3-0.12-0.3-0.16c0.01-0.16,0.02-0.4,0.12-0.46c0.25-0.17,0.56-0.26,0.9-0.4c-0.05,0.15-0.08,0.22-0.1,0.28
					c0.02,0.02,0.04,0.03,0.06,0.05c0.16-0.19,0.32-0.37,0.5-0.57c-0.08-0.03-0.16-0.07-0.33-0.13c0.14-0.15,0.24-0.28,0.36-0.38
					c0.29-0.24,0.58-0.47,0.88-0.69c0.09-0.06,0.22-0.04,0.29-0.05c0.06-0.2,0.13-0.41,0.2-0.62c0.05,0.02,0.1,0.04,0.18,0.08
					c-0.03-0.11-0.05-0.18-0.04-0.16c0.23-0.18,0.41-0.37,0.62-0.47c0.26-0.12,0.56-0.15,0.89-0.24c-0.2-0.19-0.35-0.36-0.09-0.56
					c-0.1,0.04-0.2,0.08-0.42,0.16c0.07-0.27,0.11-0.44,0.18-0.7c-0.18-0.05-0.39-0.1-0.67-0.17c0-0.05-0.01-0.2-0.01-0.35
					c0.03,0,0.05-0.01,0.08-0.01c0.03,0.08,0.06,0.16,0.11,0.32c0.17-0.17,0.33-0.31,0.48-0.45c-0.02-0.02-0.04-0.05-0.07-0.07
					c-0.06,0.04-0.13,0.08-0.19,0.12c-0.02-0.02-0.04-0.04-0.06-0.06c0.12-0.12,0.24-0.24,0.42-0.41c-0.99,0.22-1.82,0.64-2.63,1.09
					c-0.21,0.12-0.46,0.18-0.61-0.1c0.31-0.19,0.59-0.38,0.89-0.55c0.21-0.12,0.44-0.21,0.64-0.34c0.3-0.19,0.58-0.4,0.83-0.67
					c-1.17,0.32-2.17,0.96-3.2,1.64c0.23-0.43,0.44-0.81,0.61-1.13c0.12-0.09,0.21-0.15,0.3-0.21l-0.01,0
					c-0.01,0.11-0.03,0.22-0.04,0.33c0.55-0.23,1.09-0.46,1.64-0.69c0.78-0.33,1.56-0.3,2.34,0.01c0.26,0.1,0.54,0.16,0.8,0.28
					c0.24,0.1,0.33,0.3,0.29,0.56c-0.06,0.36,0.1,0.62,0.43,0.79c0.41,0.21,0.72,0.46,0.69,1.03c-0.01,0.26,0.29,0.55,0.49,0.8
					c0.12,0.15,0.35,0.21,0.49,0.36c0.1,0.11,0.2,0.29,0.19,0.43c-0.06,0.55,0.16,1.06,0.64,1.34c0.15,0.09,0.3,0.17,0.46,0.26
					c0.44,0.26,0.47,0.42,0.15,0.83c-0.34,0.43-0.38,1.08-0.07,1.47c0.13,0.16,0.29,0.29,0.42,0.44c0.3,0.34,0.29,0.56-0.11,0.78
					c-0.69,0.38-0.99,0.97-1.03,1.72c-0.02,0.41-0.27,0.55-0.62,0.64c-0.69,0.18-1.37,0.39-2.06,0.57c-0.14,0.04-0.3,0.01-0.45,0.03
					c-0.36,0.05-0.71,0.12-1.07,0.16c-0.27,0.03-0.54,0.06-0.81,0.02c-1.26-0.2-2.51-0.43-3.77-0.64c-0.62-0.1-1.17-0.32-1.52-0.9
					c-0.1-0.16-0.29-0.27-0.46-0.43c-0.08,0.36,0.48,0.45,0.21,0.85c-0.26,0.39-0.54,0.12-0.85,0.12c0.76,0.32,1.2,0.91,1.51,1.61
					c0.18,0.4,0.3,0.82,0.45,1.22c0.41,1.11,0.84,2.21,1.22,3.32c0.12,0.33,0.11,0.71,0.16,1.07c0.01,0.08,0,0.16,0,0.24
					c0.04,1.01,0.08,2.02,0.11,3.03c0.02,0.62-0.05,0.68-0.63,0.83c-0.6,0.16-1.08,0.47-1.27,1.12c-0.18,0.6-0.4,0.66-0.91,0.31
					c-0.31-0.22-0.61-0.44-1.03-0.38c-0.32,0.05-0.59,0.13-0.8,0.41c-0.26,0.35-0.45,0.35-0.78,0.07c-0.38-0.33-0.68-0.76-1.23-0.81
					c-0.13-0.01-0.29-0.05-0.38,0.01c-0.42,0.29-0.69,0.07-1-0.19c-0.25-0.22-0.54-0.39-0.83-0.56c-0.08-0.05-0.23-0.06-0.31-0.02
					c-0.44,0.2-0.72-0.03-0.97-0.35c-0.28-0.34-0.59-0.55-1.06-0.33c-0.24,0.11-0.41-0.03-0.53-0.25c-0.54-0.93-0.86-1.91-0.76-2.99
					c0.14-1.5,0.55-2.9,1.47-4.12c0.01-0.02,0.04-0.03,0.11-0.09c-0.09,0.17-0.15,0.28-0.21,0.4c-0.51,0.99-0.74,2.07-1,3.14
					c-0.03,0.13,0.08,0.3,0.14,0.49c-0.04,0.01-0.15,0.03-0.28,0.06c0.06,0.32,0.62,0.21,0.55,0.65c-0.05,0.29-0.06,0.58-0.09,0.92
					c0.44-0.19,0.81-0.35,1.18-0.51c0.11,0.53,0.22,1.05,0.33,1.57c0.03,0,0.06,0.01,0.09,0.01c0.11-0.33,0.21-0.66,0.33-1.02
					c0.03,0.04,0.07,0.08,0.12,0.15c0.15-0.19,0.28-0.4,0.45-0.58c0.07-0.07,0.21-0.09,0.31-0.13c0.01,0.08,0.03,0.17,0.03,0.25
					c-0.01,0.42-0.04,0.85,0.02,1.29c0.03-0.13,0.07-0.25,0.09-0.31c0.16,0.26,0.35,0.55,0.52,0.85c0.04,0.07-0.04,0.21-0.01,0.29
					c0.05,0.11,0.15,0.21,0.24,0.29c0.02,0.02,0.11-0.05,0.16-0.08c-0.05-0.11-0.11-0.21-0.17-0.34c0.29-0.03,0.68-0.02,0.69-0.53
					c-0.17-0.17-0.79,0.21-0.58-0.49c0.08,0.09,0.15,0.16,0.23,0.25c0.16-0.12,0.31-0.22,0.54-0.39c-0.19,0.03-0.29,0.05-0.38,0.07
					c-0.02-0.03-0.03-0.05-0.05-0.08c0.09-0.08,0.18-0.16,0.26-0.24c0,0-0.03,0-0.03,0c0.07,0.04,0.18,0.06,0.21,0.11
					c0.16,0.41,0.48,0.31,0.79,0.26C23,37.41,22.8,37.28,22.7,37.15z M25.22,25.31c0.16,0.08,0.28,0.19,0.41,0.21
					c0.47,0.06,0.96,0.04,1.42,0.15c0.33,0.07,0.44-0.03,0.54-0.34c-1.07-0.85-2.23-0.26-3.38-0.26
					C24.45,25.5,24.85,25.59,25.22,25.31z M30.85,23.16c-0.51-0.02-1-0.05-1.51-0.07c0.01,0.42-0.21,0.53-0.56,0.56
					c-0.18,0.02-0.49,0.07-0.31,0.38C29.43,24.14,30.09,23.51,30.85,23.16z M22.78,39.74c0.01-0.04,0.02-0.07,0.03-0.11
					c-0.2-0.19-0.4-0.39-0.6-0.58c-0.08,0.23-0.17,0.48-0.26,0.74C22.2,39.77,22.49,39.75,22.78,39.74z M18.99,13.65
					c0.05,0.01,0.11,0.01,0.16,0.02c0.06-0.51,0.11-1.02,0.17-1.52c-0.04-0.01-0.08-0.01-0.12-0.02
					C19.2,12.65,18.72,13.09,18.99,13.65z M24.14,34.56c0.01-0.28,0.01-0.52,0.02-0.81C23.66,34.24,23.66,34.26,24.14,34.56z
					 M24.65,35.8c-0.03,0.04-0.07,0.07-0.1,0.11c0.14,0.25,0.17,0.62,0.75,0.5C25.03,36.16,24.84,35.98,24.65,35.8z M25.63,40.22
					c0.05-0.05,0.1-0.1,0.16-0.15c-0.25-0.24-0.51-0.49-0.76-0.73c-0.03,0.03-0.06,0.06-0.09,0.09
					C25.17,39.69,25.4,39.96,25.63,40.22z M36.96,24.49c-0.02,0.03-0.05,0.06-0.07,0.1c0.27,0.18,0.55,0.36,0.87,0.58
					C37.63,24.69,37.27,24.62,36.96,24.49z"/>
				<path class="st11" d="M29.15,14.43c0.03-0.29,0.05-0.46,0.06-0.59c-0.31,0.09-0.61,0.21-0.92,0.25
					c-0.1,0.01-0.23-0.17-0.34-0.27c0.1-0.07,0.19-0.18,0.29-0.2c0.27-0.04,0.55-0.03,0.9-0.05c-0.21-0.19-0.37-0.34-0.53-0.48
					C29.59,13.67,29.59,13.67,29.15,14.43z"/>
				<path class="st11" d="M23.11,31.32c-0.01,0.02-0.02,0.03-0.01,0.04c-0.07,0.11-0.13,0.21-0.21,0.34
					c0.02,0.01,0.07,0.05,0.14,0.1c-0.78,0.2-0.99,0.11-1.07-0.54C22.35,31.28,22.73,31.3,23.11,31.32z"/>
				<path class="st11" d="M14.99,35.21c-0.12,0.16-0.24,0.32-0.3,0.41c-0.33-0.19-0.6-0.34-0.91-0.51c0.09-0.27,0.31-0.25,0.6-0.04
					c-0.01-0.13-0.01-0.22-0.02-0.34c0.23,0.18,0.44,0.33,0.65,0.49C15.02,35.21,14.99,35.21,14.99,35.21z"/>
				<path class="st11" d="M12.84,35.35c0.21,0.08,0.34,0.13,0.52,0.19c-0.57,0.08-0.71-0.03-0.73-0.51
					c-0.01-0.13-0.07-0.27-0.06-0.4c0-0.07,0.09-0.17,0.15-0.18c0.07-0.02,0.23,0.03,0.23,0.07C13.02,34.8,13.23,35.09,12.84,35.35z
					"/>
				<path class="st11" d="M21.74,37.19c0,0,0.03,0,0.03,0c-0.4-0.11-0.5-0.27-0.4-0.63c0.05-0.19,0.13-0.38,0.23-0.67
					C21.85,36.36,21.89,36.76,21.74,37.19z"/>
				<path class="st11" d="M14.99,35.21c0,0,0.03,0,0.03,0C15,35.12,14.93,35,14.97,34.95c0.27-0.33,0.51-0.71,0.94-0.87
					c0.03,0.03,0.06,0.06,0.09,0.09C15.66,34.52,15.33,34.86,14.99,35.21z"/>
				<path class="st11" d="M29.36,16.88c0.17-0.39,0.37-0.77,0.51-1.17c0.04-0.12-0.03-0.28-0.13-0.43c0.09-0.12,0.18-0.25,0.3-0.4
					C30.24,15.71,29.88,16.32,29.36,16.88C29.35,16.88,29.36,16.88,29.36,16.88z"/>
				<path class="st11" d="M21.77,34.13c0.28,0.5,0.1,0.79-0.25,1.04C21.59,34.86,21.67,34.54,21.77,34.13z"/>
				<path class="st11" d="M23.01,8.42c0.13,0.18,0.19,0.28,0.28,0.4c-0.14,0.11-0.28,0.22-0.45,0.35
					C22.51,8.81,22.98,8.71,23.01,8.42z"/>
				<path class="st11" d="M22.7,37.15c0.09,0.13,0.29,0.26,0.03,0.42c-0.17-0.06-0.35-0.12-0.52-0.18c0-0.06,0.01-0.12,0.01-0.18
					C22.39,37.19,22.55,37.17,22.7,37.15z"/>
				<path class="st11" d="M21.29,31.33c-0.14-0.24-0.25-0.42-0.36-0.59c0.03-0.03,0.06-0.07,0.09-0.1c0.17,0.13,0.35,0.26,0.55,0.41
					C21.52,31.11,21.43,31.19,21.29,31.33z"/>
				<path class="st11" d="M27.55,15.67c0.3-0.4,0.6-0.81,0.9-1.21c0.02,0.01,0.04,0.03,0.06,0.04c-0.3,0.4-0.6,0.81-0.9,1.21
					C27.59,15.7,27.57,15.68,27.55,15.67z"/>
				<path class="st11" d="M28.98,15.47c0.2,0.05,0.36,0.09,0.52,0.13c-0.05,0.08-0.11,0.23-0.14,0.22
					C29.2,15.79,28.92,15.93,28.98,15.47z"/>
				<path class="st11" d="M21.37,37.32c-0.2,0.12-0.33,0.2-0.46,0.28c-0.03-0.02-0.05-0.03-0.08-0.05c0.07-0.14,0.14-0.27,0.21-0.41
					C21.14,37.2,21.23,37.25,21.37,37.32z"/>
				<path class="st11" d="M25.22,25.31c-0.38,0.27-0.77,0.19-1-0.24c1.14,0.01,2.31-0.59,3.38,0.26c-0.1,0.3-0.21,0.41-0.54,0.34
					c-0.46-0.1-0.95-0.09-1.42-0.15C25.5,25.5,25.38,25.39,25.22,25.31z"/>
				<path class="st11" d="M30.85,23.16c-0.75,0.35-1.41,0.98-2.38,0.87c-0.18-0.32,0.13-0.37,0.31-0.38
					c0.35-0.03,0.58-0.13,0.56-0.56C29.85,23.11,30.34,23.13,30.85,23.16z"/>
				<path class="st11" d="M22.78,39.74c-0.29,0.01-0.58,0.03-0.83,0.04c0.09-0.26,0.18-0.51,0.26-0.74c0.2,0.2,0.4,0.39,0.6,0.58
					C22.8,39.66,22.79,39.7,22.78,39.74z"/>
				<path class="st11" d="M18.99,13.65c-0.27-0.56,0.2-1.01,0.2-1.53c0.04,0.01,0.08,0.01,0.12,0.02c-0.06,0.51-0.11,1.02-0.17,1.52
					C19.1,13.66,19.04,13.66,18.99,13.65z"/>
				<path class="st11" d="M24.14,34.56c-0.48-0.3-0.48-0.32,0.02-0.81C24.15,34.04,24.14,34.28,24.14,34.56z"/>
				<path class="st11" d="M24.65,35.8c0.19,0.18,0.39,0.36,0.65,0.61c-0.58,0.12-0.61-0.26-0.75-0.5
					C24.58,35.87,24.61,35.83,24.65,35.8z"/>
				<path class="st11" d="M25.63,40.22c-0.23-0.26-0.46-0.53-0.7-0.79c0.03-0.03,0.06-0.06,0.09-0.09c0.25,0.24,0.51,0.49,0.76,0.73
					C25.74,40.12,25.68,40.17,25.63,40.22z"/>
				<path class="st11" d="M36.96,24.49c0.31,0.14,0.67,0.2,0.8,0.67c-0.32-0.22-0.6-0.4-0.87-0.58
					C36.92,24.55,36.94,24.52,36.96,24.49z"/>
			</g>
		</g>
		<text transform="matrix(1 0 0 1 36.8436 42.134)" class="st11 st3 st9 st10">T.L.P.</text>
	</g>
</g>
<g class="st12">
	<text transform="matrix(1 0 0 1 5.2541 42.6227)" class="st13 st3 st4 st5">T.L.P.</text>
</g>
</svg>
