<?xml version="1.0" encoding="utf-8"?>
<!-- Generator: Adobe Illustrator 24.3.0, SVG Export Plug-In . SVG Version: 6.00 Build 0)  -->
<svg version="1.1" id="Layer_1" xmlns="http://www.w3.org/2000/svg" xmlns:xlink="http://www.w3.org/1999/xlink" x="0px" y="0px"
	 viewBox="0 0 1337 801" style="enable-background:new 0 0 1337 801;" xml:space="preserve">
<style type="text/css">
	.st0{clip-path:url(#SVGID_2_);}
	.st1{fill:#F8FAFD;}
	.st2{opacity:0.2;fill:#48C0B6;enable-background:new    ;}
	.st3{opacity:0.1;enable-background:new    ;}
	.st4{opacity:0.8;fill:#FFCE00;enable-background:new    ;}
	.st5{opacity:0.1;fill:#013D32;enable-background:new    ;}
	.st6{fill:#00C9A7;}
	.st7{fill:url(#SVGID_3_);}
	.st8{fill:url(#SVGID_4_);}
	.st9{fill:url(#SVGID_5_);}
	.st10{opacity:0.7;fill:none;stroke:#377DFF;stroke-width:14.3333;stroke-miterlimit:10;enable-background:new    ;}
	.st11{fill:#26BCB8;}
	.st12{opacity:0.7;fill:#F4E800;enable-background:new    ;}
	.st13{opacity:0.6;fill:#CBFBFF;}
	.st14{fill:#CBFBFF;}
	.st15{fill:#F6543C;}
	.st16{opacity:0.3;fill:#B5B1B0;}
	.st17{opacity:0.3;fill:#47F906;}
	.st18{font-family:'GillSans-SemiBold';}
	.st19{font-size:254.6899px;}
	.st20{opacity:0.6;}
	.st21{fill:#C5C1C1;}
</style>
<g>
	<defs>
		<rect id="SVGID_1_" width="1337" height="801"/>
	</defs>
	<clipPath id="SVGID_2_">
		<use xlink:href="#SVGID_1_"  style="overflow:visible;"/>
	</clipPath>
	<g class="st0">
		<path class="st1" d="M1337,0H0v801h1337V0z"/>
		<path class="st2" d="M952.1,833.5L1230.9,485L1531,777.2l-5.2,32.2L1449,914.2l-498-79.6L952.1,833.5z"/>
		<path class="st3" d="M1137.4,700.3c39.3,0,71.2-25.2,71.2-56.2c0-31-31.9-56.2-71.2-56.2c-39.3,0-71.2,25.2-71.2,56.2
			C1066.2,675.1,1098.1,700.3,1137.4,700.3z"/>
		<path class="st4" d="M1076.6,622.2c36.8,0,66.6-29.8,66.6-66.6c0-36.8-29.8-66.6-66.6-66.6s-66.6,29.8-66.6,66.6
			C1010,592.4,1039.8,622.2,1076.6,622.2z"/>
		<path class="st5" d="M212.4,764.5c8,0,14.4-6.4,14.4-14.4s-6.4-14.4-14.4-14.4c-8,0-14.4,6.4-14.4,14.4S204.4,764.5,212.4,764.5z"
			/>
		<path class="st5" d="M300.2,764.9c8,0,14.4-6.4,14.4-14.4s-6.4-14.4-14.4-14.4s-14.4,6.4-14.4,14.4S292.2,764.9,300.2,764.9z"/>
		<path class="st5" d="M300.2,656.9c8,0,14.4-6.4,14.4-14.4s-6.4-14.4-14.4-14.4s-14.4,6.4-14.4,14.4S292.2,656.9,300.2,656.9z"/>
		<path class="st5" d="M388,764.9c8,0,14.4-6.4,14.4-14.4s-6.4-14.4-14.4-14.4s-14.4,6.4-14.4,14.4S380,764.9,388,764.9z"/>
		<path class="st5" d="M388,656.9c8,0,14.4-6.4,14.4-14.4s-6.4-14.4-14.4-14.4s-14.4,6.4-14.4,14.4S380,656.9,388,656.9z"/>
		<path class="st5" d="M388,568.8c8,0,14.4-6.4,14.4-14.4S396,540,388,540s-14.4,6.4-14.4,14.4S380,568.8,388,568.8z"/>
		<path class="st6" d="M212.4,747.5c8,0,14.4-6.4,14.4-14.4s-6.4-14.4-14.4-14.4c-8,0-14.4,6.4-14.4,14.4S204.4,747.5,212.4,747.5z"
			/>
		<path class="st6" d="M300.2,747.9c8,0,14.4-6.4,14.4-14.4s-6.4-14.4-14.4-14.4s-14.4,6.4-14.4,14.4S292.2,747.9,300.2,747.9z"/>
		<path class="st6" d="M300.2,639.9c8,0,14.4-6.4,14.4-14.4s-6.4-14.4-14.4-14.4s-14.4,6.4-14.4,14.4S292.2,639.9,300.2,639.9z"/>
		<path class="st6" d="M388,747.9c8,0,14.4-6.4,14.4-14.4s-6.4-14.4-14.4-14.4s-14.4,6.4-14.4,14.4S380,747.9,388,747.9z"/>
		<path class="st6" d="M388,639.9c8,0,14.4-6.4,14.4-14.4s-6.4-14.4-14.4-14.4s-14.4,6.4-14.4,14.4S380,639.9,388,639.9z"/>
		<path class="st6" d="M388,551.8c8,0,14.4-6.4,14.4-14.4S396,523,388,523s-14.4,6.4-14.4,14.4S380,551.8,388,551.8z"/>
		
			<linearGradient id="SVGID_3_" gradientUnits="userSpaceOnUse" x1="388" y1="176" x2="388" y2="265.8" gradientTransform="matrix(1 0 0 -1 0 802)">
			<stop  offset="0" style="stop-color:#00C9A7"/>
			<stop  offset="1" style="stop-color:#FFFFFF;stop-opacity:0"/>
		</linearGradient>
		<path class="st7" d="M402.4,536.2h-28.8V626h28.8V536.2z"/>
		
			<linearGradient id="SVGID_4_" gradientUnits="userSpaceOnUse" x1="388" y1="67.2" x2="388" y2="157" gradientTransform="matrix(1 0 0 -1 0 802)">
			<stop  offset="0" style="stop-color:#00C9A7"/>
			<stop  offset="1" style="stop-color:#FFFFFF;stop-opacity:0"/>
		</linearGradient>
		<path class="st8" d="M402.4,645h-28.8v89.8h28.8V645z"/>
		
			<linearGradient id="SVGID_5_" gradientUnits="userSpaceOnUse" x1="300.3" y1="67.2" x2="300.3" y2="157" gradientTransform="matrix(1 0 0 -1 0 802)">
			<stop  offset="0" style="stop-color:#00C9A7"/>
			<stop  offset="1" style="stop-color:#FFFFFF;stop-opacity:0"/>
		</linearGradient>
		<path class="st9" d="M314.7,645h-28.8v89.8h28.8V645z"/>
		<path class="st10" d="M290.4,97.4c12.3,0,22.2-9.9,22.2-22.2s-9.9-22.2-22.2-22.2c-12.3,0-22.2,9.9-22.2,22.2
			S278.1,97.4,290.4,97.4z"/>
		<path class="st11" d="M255.3,38.6c2.4,0,4.3-1.9,4.3-4.3c0-2.4-1.9-4.3-4.3-4.3c-2.4,0-4.3,1.9-4.3,4.3
			C251,36.7,252.9,38.6,255.3,38.6z"/>
		<path class="st12" d="M292.4,56.4c-1.9-6.5,1.9-13.2,8.2-15.1c6.5-1.9,13.2,1.9,15.1,8.2c1.9,6.5-1.9,13.2-8.3,15.1
			C301,66.6,294.3,62.8,292.4,56.4z"/>
	</g>
</g>
<rect x="268" y="-268" transform="matrix(-1.836970e-16 1 -1 -1.836970e-16 1069 -268)" class="st1" width="801" height="1337"/>
<polygon class="st13" points="1378.2,458 1457.9,766.8 1757.4,876.2 1488.4,1047.4 1476.9,1366.1 1230.9,1163.2 924.3,1250.7 
	1041.3,954.1 863.2,689.5 1181.5,709.1 "/>
<polygon class="st14" points="1392.7,400.5 1472.4,709.3 1772,818.7 1502.9,989.9 1491.5,1308.6 1245.5,1105.7 938.8,1193.2 
	1055.8,896.6 877.8,632 1196.1,651.6 "/>
<polygon class="st15" points="152.2,13.2 171.5,88.1 244.2,114.7 178.9,156.2 176.1,233.5 116.5,184.3 42.1,205.5 70.5,133.5 
	27.3,69.4 104.5,74.1 "/>
<polygon class="st16" points="152.2,-2.1 171.5,72.8 244.2,99.4 178.9,140.9 176.1,218.2 116.5,169 42.1,190.2 70.5,118.3 
	27.3,54.1 104.5,58.8 "/>
<polygon class="st15" points="319.3,664.5 328.6,700.8 363.8,713.6 332.2,733.8 330.9,771.2 302,747.3 266,757.6 279.7,722.8 
	258.8,691.7 296.2,694 "/>
<polygon class="st16" points="319.3,657.1 328.6,693.4 363.8,706.2 332.2,726.4 330.9,763.8 302,739.9 266,750.2 279.7,715.4 
	258.8,684.3 296.2,686.6 "/>
<polygon class="st17" points="206.6,629.1 212.9,653.5 236.5,662.1 215.3,675.6 214.4,700.6 195,684.7 170.9,691.6 180.1,668.2 
	166.1,647.4 191.1,648.9 "/>
<polygon class="st16" points="206.6,624.2 212.9,648.5 236.5,657.1 215.3,670.6 214.4,695.7 195,679.7 170.9,686.6 180.1,663.2 
	166.1,642.4 191.1,643.9 "/>
<polygon class="st17" points="84.6,543.8 88.3,557.8 101.9,562.8 89.7,570.6 89.1,585.1 77.9,575.8 64,579.8 69.3,566.3 61.2,554.3 
	75.7,555.2 "/>
<polygon class="st16" points="84.6,540.9 88.3,555 101.9,559.9 89.7,567.7 89.1,582.2 77.9,573 64,577 69.3,563.5 61.2,551.5 
	75.7,552.3 "/>
<text transform="matrix(1 0 0 1 1040.3264 590.1865)" class="st15 st18 st19">:P.</text>
<g class="st20">
	<g>
		<path class="st21" d="M1054.2,615.3c-3.4-3.9-4.7-8.7-4.1-14.4c0.7-5.6,3.2-10.7,7.5-15.1c4.3-4.4,9-6.8,14.2-7.2
			c5.2-0.4,9.5,1.4,13,5.2c3.6,3.8,5.3,8.7,4.9,14.7c-0.3,5.5-2.5,10.5-6.8,14.9c-4.3,4.4-9.2,6.8-14.8,7.2
			C1062.3,621,1057.6,619.2,1054.2,615.3z M1044.5,703.3c-3.9-3.9-5.5-8.8-4.8-14.5c0.7-5.6,3.5-10.6,8.3-14.9
			c4.8-4.3,10.2-6.7,16.1-7c5.8-0.3,10.7,1.5,14.9,5.3c4.2,3.8,6.1,8.6,5.8,14.3c-0.4,6.2-2.9,11.4-7.7,15.6
			c-4.8,4.2-10.4,6.4-16.7,6.7C1053.7,709.1,1048.4,707.2,1044.5,703.3z"/>
		<path class="st21" d="M1120.6,770.1c0.6-64.2,1.1-128.4,1.6-192.6c11.1-0.8,22.3-1.6,33.4-2.4c1.2,27.1,2.4,54.1,3.7,81.2
			c12-0.6,24.1-1.3,36.1-1.9c16.6-0.7,34.3,2.9,47.6,13.3c12.6,9.8,22,24.9,24.8,40.4c2.7,14.7-1.1,30.9-11.7,42
			c-12.6,13.1-31.2,16.1-48.4,17.6C1178.6,768.5,1149.6,769.3,1120.6,770.1z M1160.6,685.6c0.8,18,1.6,36,2.4,54
			c9.5-0.3,19-0.7,28.5-1c17.3-0.3,37.9-7.4,34.9-28.4c-1.3-8.9-5-15.8-11.4-20.1c-6.4-4.3-14.7-6.3-25.1-5.8
			C1180.1,684.7,1170.3,685.1,1160.6,685.6z"/>
		<path class="st21" d="M1248.8,602.9c-4.7-4-7.5-8.9-8.5-14.9c-1-5.8,0-11,3-15.5c2.9-4.5,6.9-7,11.9-7.4c5.1-0.4,10,1.4,14.5,5.4
			c4.6,4,7.6,8.9,9,14.7c1.4,6,0.6,11.3-2.4,15.8c-3,4.5-7.2,6.9-12.4,7.3C1258.5,608.7,1253.5,606.9,1248.8,602.9z"/>
	</g>
</g>
</svg>
